<svg width="3199" height="474" viewBox="0 0 3199 474" fill="none" xmlns="http://www.w3.org/2000/svg">
<path d="M383.07 188.83L402.37 180.56L384.48 174.25L383.07 188.83Z" fill="white"/>
<path d="M104.65 170.91L86.74 180.56L104.65 188.83V170.91Z" fill="white"/>
<path d="M125.81 163.9C125.78 163.95 125.74 163.99 125.71 164.04C122.28 176.24 120.12 187.83 119.3 192.55L244.3 238.61L367.16 193.33C366.86 174.46 360.75 154.75 349.41 136.25L344.43 128.13L351.23 121.89C363.02 111.08 369.79 95.09 369.79 78.03C369.79 46.81 347.15 21.41 319.32 21.41C295.78 21.41 275.05 40.11 270.03 65.88L268.15 75.52L259.43 74.21C248.54 72.58 237.57 72.58 226.67 74.21L217.95 75.52L216.07 65.88C211.05 40.11 190.32 21.41 166.78 21.41C138.95 21.41 116.31 46.81 116.31 78.03C116.31 95.09 123.07 111.07 134.87 121.89L141.67 128.13L136.69 136.25C132.92 142.39 129.74 150.69 127.14 159.1C127.14 159.64 127.08 160.18 126.99 160.71C126.77 161.84 126.37 162.89 125.79 163.89L125.81 163.9Z" fill="white"/>
<path d="M165.99 112.93C149.74 112.93 135.25 102.61 129.94 87.24C126.61 77.61 127.23 67.26 131.68 58.09C136.13 48.92 143.89 42.04 153.52 38.71C157.56 37.31 161.76 36.6 166 36.6C182.25 36.6 196.74 46.92 202.06 62.29C205.39 71.92 204.77 82.27 200.32 91.44C195.87 100.61 188.11 107.49 178.48 110.82C174.44 112.22 170.24 112.93 166 112.93H165.99Z" fill="white"/>
<path d="M165.99 114.31C149.15 114.31 134.14 103.61 128.63 87.69C125.18 77.71 125.82 66.99 130.43 57.49C135.05 47.99 143.08 40.86 153.06 37.41C157.25 35.96 161.6 35.23 165.99 35.23C182.83 35.23 197.84 45.93 203.35 61.85C206.8 71.83 206.16 82.56 201.55 92.05C196.94 101.55 188.9 108.68 178.92 112.13C174.73 113.58 170.38 114.31 165.99 114.31ZM165.99 37.98C161.91 37.98 157.86 38.66 153.96 40.01C144.68 43.22 137.2 49.86 132.91 58.69C128.62 67.53 128.02 77.5 131.23 86.79C136.35 101.6 150.32 111.55 165.98 111.55C170.06 111.55 174.11 110.87 178.01 109.52C187.29 106.31 194.77 99.67 199.06 90.84C203.35 82.01 203.95 72.03 200.74 62.74C195.61 47.93 181.65 37.98 165.99 37.98Z" fill="black"/>
<path d="M68.4 261.91V388.79L244.57 454.23L420.2 388.79V266.92L68.4 261.91Z" fill="#FF0000"/>
<path d="M488.54 257.68C488.46 256.95 488.29 256.25 488.06 255.57C487.81 254.89 487.51 254.24 487.13 253.62L439.61 177.56C438.54 174.48 436.46 172.45 433.37 171.45C433.24 171.4 433.1 171.37 432.99 171.32L374.73 149.86C373.5 149.38 372.22 149.16 370.9 149.21C369.77 149.24 368.67 149.48 367.62 149.91C366.55 150.33 365.61 150.93 364.76 151.67C363.91 152.42 363.23 153.3 362.68 154.3C362.15 155.3 361.78 156.35 361.61 157.48C361.43 158.6 361.46 159.73 361.68 160.83C361.9 161.95 362.3 162.99 362.88 163.98C363.46 164.95 364.18 165.79 365.06 166.53C365.94 167.25 366.91 167.8 367.99 168.18L401.74 180.62L244.32 238.63L86.9 180.62L120.65 168.18C121.75 167.8 122.73 167.25 123.61 166.51C124.51 165.78 125.24 164.91 125.82 163.91C126.4 162.91 126.8 161.86 127.02 160.73C127.22 159.6 127.24 158.45 127.04 157.32C126.84 156.19 126.46 155.12 125.89 154.12C125.32 153.12 124.59 152.24 123.73 151.49C122.85 150.76 121.87 150.17 120.78 149.79C119.7 149.39 118.58 149.19 117.43 149.19C116.2 149.19 115.03 149.41 113.9 149.86L55.26 171.46C52.15 172.46 50.06 174.51 49 177.6L1.48 253.62C1.1 254.24 0.800002 254.89 0.550002 255.57C0.320002 256.25 0.150002 256.95 0.0700021 257.68C-0.00999786 258.4 -0.00999786 259.11 0.0700021 259.83C0.150002 260.56 0.300002 261.26 0.540002 261.94C0.770002 262.62 1.09 263.29 1.46 263.9C1.84 264.52 2.29 265.08 2.79 265.6C3.31 266.12 3.86 266.58 4.47 266.97C5.07 267.37 5.72 267.7 6.4 267.95L48.86 283.6V395.6C48.86 397.65 49.46 399.51 50.63 401.18C51.8 402.86 53.34 404.06 55.26 404.76L240.94 473.16C243.19 473.99 245.45 473.99 247.7 473.16L433.38 404.76C435.29 404.06 436.84 402.86 438.01 401.18C439.18 399.51 439.78 397.65 439.78 395.6V283.6L482.24 267.95C482.92 267.7 483.57 267.37 484.17 266.97C484.79 266.59 485.34 266.12 485.85 265.6C486.35 265.08 486.8 264.52 487.17 263.9C487.55 263.28 487.87 262.62 488.1 261.94C488.33 261.26 488.48 260.56 488.57 259.83C488.65 259.11 488.65 258.4 488.57 257.68H488.54ZM24.41 253.79L62.71 192.53L229.67 254.02V254.04L191.37 315.28L24.41 253.79ZM234.53 449.99L68.4 388.8V290.81L192.07 336.37C193.12 336.75 194.2 336.95 195.33 336.97C196.45 336.99 197.54 336.8 198.59 336.44C199.66 336.09 200.62 335.56 201.5 334.86C202.38 334.16 203.12 333.33 203.71 332.38L234.51 283.09V450L234.53 449.99ZM420.2 388.79L254.07 449.98V283.07L284.87 332.36C285.47 333.31 286.2 334.14 287.08 334.84C287.96 335.54 288.93 336.07 289.99 336.42C291.04 336.79 292.14 336.97 293.25 336.95C294.38 336.93 295.46 336.73 296.51 336.35L420.18 290.79V388.78L420.2 388.79ZM297.23 315.28L258.95 254.04L425.89 192.53L464.19 253.79L297.23 315.28Z" fill="black"/>
<path d="M165.91 151.68C165.91 151.68 195.52 194.96 244.87 194.96C294.22 194.96 323.83 151.68 323.83 151.68C324.72 150.47 325.24 149.11 325.38 147.62C325.5 146.13 325.24 144.71 324.56 143.37C323.89 142.03 322.9 140.95 321.62 140.16C320.35 139.36 318.94 138.96 317.43 138.95C316.05 138.94 314.76 139.26 313.55 139.91C312.33 140.56 311.36 141.46 310.61 142.6C310.61 142.6 284.56 179.02 244.88 179.02C205.2 179.02 179.15 142.6 179.15 142.6C178.38 141.47 177.4 140.6 176.18 139.97C174.96 139.35 173.67 139.05 172.3 139.07C170.81 139.11 169.44 139.52 168.18 140.31C166.92 141.1 165.96 142.16 165.29 143.47C164.62 144.79 164.34 146.19 164.45 147.65C164.57 149.13 165.05 150.46 165.92 151.67L165.91 151.68Z" fill="black"/>
<path d="M62.7 192.53L24.41 253.79L191.37 315.28L229.66 254.04L62.7 192.53Z" fill="#FF0000"/>
<path d="M258.95 254.04L297.23 315.28L464.19 253.79L425.9 192.53L258.95 254.04Z" fill="#FF0000"/>
<path d="M182.679 101.116C197.388 92.0558 201.968 72.7871 192.908 58.0779C183.848 43.3687 164.579 38.7889 149.87 47.8487C135.161 56.9085 130.581 76.1771 139.641 90.8864C148.701 105.596 167.969 110.175 182.679 101.116Z" fill="#1E1F1D"/>
<path d="M185.56 97.2904C190.467 90.4518 188.901 80.9303 182.062 76.0235C175.224 71.1167 165.702 72.6827 160.795 79.5213C155.889 86.3599 157.455 95.8814 164.293 100.788C171.132 105.695 180.653 104.129 185.56 97.2904Z" fill="white"/>
<path d="M320.09 112.97C303.84 112.97 289.35 102.65 284.04 87.28C280.71 77.65 281.33 67.3 285.78 58.13C290.23 48.96 297.99 42.08 307.62 38.75C311.66 37.35 315.86 36.64 320.1 36.64C336.35 36.64 350.84 46.96 356.16 62.33C359.49 71.96 358.87 82.31 354.42 91.48C349.97 100.65 342.21 107.53 332.58 110.86C328.54 112.26 324.34 112.97 320.1 112.97H320.09Z" fill="white"/>
<path d="M320.09 114.35C303.25 114.35 288.24 103.65 282.73 87.73C279.28 77.75 279.92 67.02 284.53 57.53C289.15 48.03 297.18 40.9 307.16 37.45C311.35 36 315.7 35.27 320.09 35.27C336.93 35.27 351.94 45.97 357.45 61.89C360.9 71.87 360.26 82.6 355.65 92.09C351.04 101.59 343 108.72 333.02 112.17C328.83 113.62 324.48 114.35 320.09 114.35ZM320.09 38.02C316.01 38.02 311.96 38.7 308.06 40.05C298.78 43.26 291.3 49.9 287.01 58.73C282.72 67.57 282.12 77.54 285.33 86.83C290.45 101.64 304.42 111.59 320.08 111.59C324.16 111.59 328.21 110.91 332.11 109.56C341.39 106.35 348.87 99.71 353.16 90.88C357.45 82.05 358.05 72.07 354.84 62.78C349.71 47.97 335.75 38.02 320.09 38.02Z" fill="black"/>
<path d="M336.778 101.155C351.488 92.0949 356.067 72.8263 347.008 58.1171C337.948 43.4079 318.679 38.8281 303.97 47.8879C289.261 56.9477 284.681 76.2163 293.741 90.9255C302.801 105.635 322.069 110.215 336.778 101.155Z" fill="#1E1F1D"/>
<path d="M339.669 97.339C344.576 90.5004 343.01 80.9789 336.171 76.0721C329.333 71.1653 319.811 72.7313 314.904 79.5699C309.997 86.4085 311.564 95.93 318.402 100.837C325.241 105.744 334.762 104.178 339.669 97.339Z" fill="white"/>
<path d="M388.88 78.04C388.88 35.01 357.67 0 319.32 0C303.36 0 287.77 6.22 275.41 17.51C265.49 26.58 257.98 38.61 253.73 52.02C246.59 51.41 239.51 51.41 232.37 52.02C228.13 38.61 220.62 26.58 210.7 17.51C198.35 6.22 182.76 0 166.8 0C128.44 0 97.24 35.01 97.24 78.04C97.24 98.31 104.17 117.49 116.49 131.93C105.71 152.01 99.99 173.29 99.85 193.99C106.22 194.42 112.58 194.78 118.94 195.08C118.94 195.08 118.94 195.06 118.94 195.05C118.94 194.96 118.94 194.78 118.94 194.78C118.94 194.78 125.09 155.23 136.72 136.25L141.7 128.13L134.9 121.89C123.11 111.08 116.34 95.09 116.34 78.03C116.34 46.81 138.98 21.41 166.81 21.41C190.35 21.41 211.08 40.11 216.1 65.88L217.98 75.52L226.7 74.21C237.59 72.58 248.56 72.58 259.46 74.21L268.18 75.52L270.06 65.88C275.08 40.11 295.81 21.41 319.35 21.41C347.18 21.41 369.82 46.81 369.82 78.03C369.82 95.09 363.06 111.07 351.26 121.89L344.46 128.13L349.44 136.25C361.07 155.23 367.22 175.47 367.22 194.78C367.22 194.8 367.22 194.82 367.22 194.84C373.58 194.99 379.94 195.19 386.3 195.44C386.3 195.22 386.31 195 386.31 194.78C386.31 173.82 380.58 152.26 369.66 131.92C381.98 117.47 388.91 98.3 388.91 78.03L388.88 78.04Z" fill="black"/>
<path d="M733.13 167.75V99.87C732.79 95.94 731.7 92.74 729.2 90.24C727.09 87.73 723.84 86.31 720.25 85.91H645.93C642.39 86.3 639.15 87.73 637.03 90.24C634.52 92.75 633.1 95.94 633.1 99.87V390.71C633.1 394.3 634.53 397.49 637.03 400C639.14 402.51 642.39 403.59 645.93 403.93H720.25C723.84 403.59 727.08 402.5 729.2 400C731.71 397.49 732.79 394.3 733.13 390.71V287.78L831.39 347.11C837.09 350.35 842.11 351.04 846.38 349.27C851.05 347.45 854.64 343.52 857.49 337.47L890.72 279.57C893.91 273.52 894.65 268.85 892.83 265.32C891.06 262.08 888.55 259.22 883.93 257.06L733.13 167.75Z" fill="#FF0000"/>
<path d="M1147.32 257.06C1147.32 276.38 1143.78 288.86 1136.26 295.65C1129.13 302.09 1116.99 305.33 1099.1 304.94H1082.29V102.72C1081.95 98.7901 1080.86 95.5901 1078.36 92.7401C1075.9 90.5801 1073 89.1501 1069.46 88.8101H995.14C991.55 89.1501 988.36 90.5801 986.19 92.7401C983.68 95.5901 982.26 98.7901 982.26 102.72V390.71C982.26 394.3 983.69 397.49 986.19 400C988.35 402.51 991.55 403.59 995.14 403.93H1125.89C1165.56 403.93 1195.2 394.98 1214.86 376.4C1234.52 358.21 1243.81 328.18 1243.12 286.35V193.45C1243.12 189.52 1241.65 186.32 1239.53 183.82C1237.02 181.31 1233.43 180.23 1229.16 180.23H1160.2C1156.61 180.23 1153.76 181.31 1151.25 183.82C1149.14 186.33 1147.71 189.52 1147.32 193.45V257.05V257.06Z" fill="#FF0000"/>
<path d="M1561.05 243.15V292.79C1561.05 296.03 1559.62 298.88 1557.12 301C1554.27 303.51 1551.07 304.93 1546.75 304.93H1543.21C1539.28 305.32 1536.77 306.36 1534.26 308.86C1531.75 311.37 1530.33 314.22 1530.33 318.15V391.44C1530.33 394.98 1531.76 398.22 1534.26 400.73C1536.77 403.19 1539.27 403.92 1543.21 403.92H1600.72C1621.07 403.92 1635.37 398.91 1643.93 389.96C1652.53 381.41 1656.81 366.42 1657.15 344.98V190.98C1656.81 169.5 1652.53 154.51 1643.93 145.96C1635.38 137.01 1621.07 132.34 1600.72 132H1512.1V102.02C1512.1 98.09 1510.67 94.84 1508.17 92.34C1506.06 90.23 1502.47 89.15 1498.19 89.15H1429.23C1425.64 89.15 1422.79 90.23 1420.28 92.34C1418.12 94.85 1416.69 98.09 1416.35 102.02V132H1356.33C1352.4 132 1349.55 133.08 1347.04 135.59C1344.53 137.7 1343.45 140.95 1343.45 144.54V217.78C1343.45 221.71 1344.53 224.56 1347.04 226.68C1349.55 229.19 1352.4 230.61 1356.33 231.01H1416.35V257.06C1416.35 276.38 1412.76 288.86 1405.29 295.65C1398.11 302.09 1385.97 305.33 1368.13 304.94H1357.41C1353.08 304.94 1349.55 306.02 1347.04 308.53C1344.53 311.04 1343.11 314.23 1343.11 317.82V390.71C1343.11 394.64 1344.54 397.84 1347.04 400.34C1349.55 402.85 1353.09 403.93 1357.41 403.93H1394.91C1434.58 403.93 1464.22 394.98 1483.88 376.4C1503.54 358.21 1512.83 328.18 1512.09 286.35V231H1546.74C1551.07 231 1554.26 232.08 1557.11 234.54C1559.62 237.05 1561.04 239.9 1561.04 243.14L1561.05 243.15Z" fill="#FF0000"/>
<path d="M2025.18 200.29V141.31C2025.18 122.73 2021.25 109.16 2013.04 100.22C2004.83 90.93 1990.87 86.65 1971.21 86.65H1772.58C1768.99 86.65 1766.14 87.73 1763.63 90.24C1761.12 92.35 1759.7 95.6 1759.7 99.14V172.43C1759.7 176.36 1761.13 179.21 1763.63 181.33C1766.14 183.84 1768.99 185.26 1772.58 185.66H1903.33C1907.26 185.66 1910.85 186.69 1913.36 189.2C1915.87 191.71 1917.29 194.95 1917.29 198.49C1916.95 218.89 1912.62 235.99 1904.76 249.95C1896.55 263.86 1886.18 274.62 1873.7 282.44C1860.82 290.3 1840.47 294.24 1812.26 294.24H1765.07C1761.48 294.24 1758.29 295.67 1756.12 298.57C1753.66 301.03 1752.19 304.27 1752.19 308.2V389.99C1752.19 394.66 1753.66 397.85 1756.12 400.36C1758.28 402.52 1761.48 403.6 1765.07 403.95H1829.02C1847.99 403.95 1868.69 399.28 1890.85 390.38C1912.62 381.78 1930.52 369.29 1943.35 353.56C1969.79 376.07 2001.6 391.46 2038.41 399.67C2042.69 400.75 2046.62 400.36 2049.13 399.28C2051.64 398.25 2054.14 395 2056.26 389.65L2083.1 321.43C2085.21 315.68 2085.61 311.8 2084.13 308.9C2083.1 306.05 2080.25 303.54 2075.92 301.77C2046.28 294.64 2023.77 283.53 2007.7 268.54C2016.99 251.39 2023.04 228.53 2025.2 200.32L2025.18 200.29Z" fill="#FF0000"/>
<path d="M2156.97 260.31H2232.03C2235.62 259.92 2238.47 258.88 2240.98 256.38C2243.49 254.22 2244.52 251.02 2244.91 246.75V234.95C2244.91 218.88 2249.53 206 2259.16 195.63C2268.45 186 2282.41 180.98 2300.65 180.98C2318.89 180.98 2332.45 185.99 2341.74 195.63C2351.37 206 2355.65 219.91 2355.65 237.8V253.14C2355.31 270.69 2350.64 283.91 2341.35 292.46C2332.45 301.01 2318.84 305.34 2300.65 304.94H2189.51C2185.92 304.94 2183.07 306.02 2180.56 308.53C2178.05 311.04 2176.63 314.23 2176.63 317.48V389.29C2176.63 393.57 2178.06 397.15 2180.56 399.66C2183.07 402.17 2185.92 403.59 2189.51 403.59H2344.59C2373.49 402.85 2398.9 393.91 2421.02 377.15C2442.84 360.34 2455.33 337.14 2457.1 307.11V145.59C2457.1 124.16 2452.82 109.17 2444.27 100.57C2435.67 91.67 2421.76 87 2402.1 86.66H2156.97C2153.04 87 2150.19 88.43 2147.68 90.94C2145.17 93.45 2144.14 97.72 2144.14 103.82V246.76C2144.14 251.04 2145.17 254.23 2147.68 256.39C2150.19 258.9 2153.04 259.93 2156.97 260.32V260.31Z" fill="#FF0000"/>
<path d="M2713.16 292.11C2713.16 306.36 2710.31 316.05 2704.95 321.06C2699.59 326.02 2689.96 328.53 2676.39 328.19H2579.16C2575.97 328.19 2573.11 329.27 2570.95 330.7C2569.18 332.47 2568.1 334.98 2568.1 338.17V393.57C2568.1 396.42 2569.18 398.93 2570.95 400.75C2573.11 402.52 2575.96 403.6 2579.16 403.6H2697.08C2727.46 403.94 2749.62 396.82 2764.62 382.86C2779.27 368.56 2786.39 345.7 2786.05 314.24V173.47C2786.05 170.62 2784.97 168.11 2783.2 166.34C2781.04 164.91 2778.58 163.83 2775.34 163.83H2722.84C2720.33 163.83 2718.17 164.91 2716.4 166.34C2714.58 168.11 2713.55 170.62 2713.16 173.47V292.13V292.11ZM2622.08 274.22L2613.48 174.88C2613.14 170.26 2612.05 167.41 2610.29 165.59C2608.13 164.56 2605.28 163.82 2601.69 163.82H2559.17C2554.89 163.82 2552.04 164.56 2550.96 165.59C2549.88 167.41 2549.53 170.26 2550.27 174.88L2559.17 274.22C2559.56 278.89 2560.6 281.74 2562.41 283.51C2564.18 284.94 2567.03 285.67 2570.96 285.33H2611.36C2614.55 285.67 2617.06 284.59 2619.18 282.43C2621.34 280.32 2622.42 277.47 2622.08 274.22ZM2699.59 274.22L2691.04 174.88C2690.65 170.26 2689.61 167.41 2687.8 165.59C2685.69 164.56 2682.79 163.82 2679.59 163.82H2636.34C2632.06 163.82 2629.95 164.56 2628.87 165.59C2627.79 167.41 2627.44 170.26 2627.79 174.88L2636.34 274.22C2636.73 278.89 2637.77 281.74 2639.58 283.51C2641.35 284.94 2644.59 285.67 2648.87 285.33H2688.88C2691.73 285.67 2694.58 284.59 2697.09 282.43C2699.25 280.32 2699.94 277.47 2699.6 274.22H2699.59Z" fill="#FF0000"/>
<path d="M3086.86 257.06C3086.86 276.38 3083.27 288.86 3076.14 295.65C3068.62 302.09 3056.48 305.33 3038.64 304.94H2916.79C2912.86 304.94 2909.27 306.02 2906.76 308.53C2903.91 311.04 2902.48 314.23 2902.48 317.82V390.71C2902.48 394.64 2903.91 397.84 2906.76 400.34C2909.27 402.85 2912.86 403.93 2916.79 403.93H3065.43C3105.44 403.93 3135.08 394.98 3154.4 376.4C3174.06 358.21 3183.35 328.18 3182.96 286.35V216.7H3117.24C3104.71 216.7 3094.38 214.19 3086.86 209.18V257.06ZM3068.28 169.18V88.08H2882.14C2878.21 88.08 2875.36 89.16 2872.85 91.27C2870.34 93.78 2869.26 97.02 2869.26 100.56V173.85C2869.26 177.78 2870.34 180.24 2872.85 182.75C2875.36 185.26 2878.21 186.68 2882.14 187.08H3070.79C3069.02 181.72 3068.28 175.97 3068.28 169.19V169.18ZM3151.15 146.67C3151.15 148.49 3150.46 149.91 3149.38 150.95C3148.3 152.77 3146.53 153.46 3144.02 153.46H3134.04C3131.53 153.46 3129.71 152.77 3128.68 150.95C3127.6 149.92 3126.86 148.49 3126.86 146.67V136.3C3126.86 134.87 3127.6 133.45 3128.68 131.68C3129.71 129.91 3131.53 129.17 3134.04 129.17H3144.02C3146.53 129.17 3148.3 129.91 3149.38 131.68C3150.46 133.45 3151.15 134.87 3151.15 136.3V146.67ZM3079.34 170.6C3079.34 182.05 3082.24 190.61 3088.29 196.36C3093.99 202.41 3103.28 205.65 3115.82 205.65H3161.93C3174.07 205.65 3182.97 202.41 3189.06 196.36C3195.16 190.61 3198.01 182.06 3198.35 170.6V112.01C3198.01 100.56 3195.5 91.66 3189.4 85.91C3183.35 79.86 3174.41 77.01 3161.92 77.01H3115.81C3104.36 77.01 3095.07 79.86 3089.02 85.91C3082.58 91.66 3079.34 100.56 3079.34 112.01V170.6Z" fill="#FF0000"/>
</svg>
