<svg width="251" height="36" viewBox="0 0 251 36" fill="none" xmlns="http://www.w3.org/2000/svg">
<path d="M29.1041 14.3476L30.5701 13.7194L29.2115 13.2396L29.1041 14.3476Z" fill="white"/>
<path d="M7.94947 12.986L6.58863 13.7194L7.94947 14.3476V12.986Z" fill="white"/>
<path d="M9.55741 12.4536C9.55525 12.4572 9.55237 12.4608 9.5502 12.4644C9.28942 13.3916 9.12517 14.2719 9.06321 14.6307L18.5603 18.1304L27.8953 14.6905C27.8722 13.2561 27.4083 11.7592 26.5467 10.3529L26.1685 9.73554L26.6857 9.26151C27.5819 8.43953 28.0956 7.22493 28.0956 5.92893C28.0956 3.55664 26.3752 1.6274 24.2608 1.6274C22.4721 1.6274 20.8973 3.04875 20.5155 5.00681L20.3728 5.73946L19.7108 5.64004C18.883 5.51613 18.0495 5.51613 17.2218 5.64004L16.5597 5.73946L16.4171 5.00681C16.036 3.04875 14.4605 1.62812 12.6717 1.62812C10.5573 1.62812 8.83701 3.55808 8.83701 5.92965C8.83701 7.22565 9.35065 8.44025 10.2468 9.26223L10.7641 9.73626L10.3859 10.3536C10.0999 10.8205 9.85782 11.4508 9.66043 12.0905C9.66043 12.1316 9.6561 12.1719 9.6489 12.213C9.63233 12.2987 9.60207 12.3787 9.55813 12.4543L9.55741 12.4536Z" fill="white"/>
<path d="M12.6098 8.58071C11.375 8.58071 10.2742 7.79619 9.87006 6.62914C9.6172 5.89721 9.66402 5.11053 10.0019 4.41462C10.3405 3.71799 10.9298 3.19497 11.6617 2.94211C11.9686 2.83621 12.2877 2.78218 12.6098 2.78218C13.8445 2.78218 14.9453 3.5667 15.3494 4.73375C15.6023 5.46568 15.5555 6.25236 15.2169 6.94827C14.8783 7.6449 14.289 8.16792 13.5571 8.42078C13.2502 8.5274 12.9311 8.58071 12.609 8.58071H12.6098Z" fill="white"/>
<path d="M12.6098 8.68519C11.3303 8.68519 10.1899 7.87257 9.77137 6.66301C9.50914 5.90515 9.55741 5.08965 9.90824 4.36781C10.2591 3.64596 10.87 3.10422 11.6278 2.84199C11.9463 2.73177 12.2762 2.6763 12.6098 2.6763C13.8892 2.6763 15.0296 3.48892 15.4481 4.69847C15.7104 5.45706 15.6621 6.27183 15.3113 6.99368C14.9604 7.71552 14.3503 8.25727 13.5917 8.51949C13.2732 8.62972 12.9433 8.68519 12.609 8.68519H12.6098ZM12.6105 2.88594C12.3 2.88594 11.9931 2.93781 11.697 3.0401C10.9917 3.28432 10.4233 3.7886 10.0977 4.4593C9.77137 5.13071 9.72598 5.88858 9.9702 6.59385C10.3592 7.71912 11.4204 8.47555 12.6105 8.47555C12.921 8.47555 13.2286 8.42368 13.5239 8.32138C14.2292 8.07717 14.7976 7.57288 15.1232 6.90219C15.4496 6.23077 15.495 5.47291 15.2508 4.76763C14.861 3.64236 13.7999 2.88594 12.6105 2.88594Z" fill="black"/>
<path d="M5.19466 19.8997V29.5409L18.5805 34.5131L31.9252 29.5409V20.2808L5.19466 19.8997Z" fill="#FF0000"/>
<path d="M37.1179 19.5791C37.1114 19.5236 37.0992 19.4703 37.0811 19.4185C37.0624 19.3666 37.0394 19.3176 37.0105 19.2708L33.3999 13.4917C33.3192 13.2576 33.1607 13.1034 32.9251 13.027C32.9151 13.0234 32.905 13.0206 32.8963 13.017L28.4694 11.386C28.3758 11.3492 28.2785 11.3327 28.1784 11.337C28.0927 11.3399 28.0091 11.3571 27.9291 11.3903C27.8485 11.422 27.7764 11.4674 27.7116 11.5243C27.6467 11.5812 27.5949 11.6482 27.5531 11.7238C27.5127 11.7995 27.4847 11.8794 27.4724 11.9652C27.4587 12.0502 27.4609 12.1359 27.4775 12.2195C27.494 12.3045 27.5243 12.3837 27.5682 12.4586C27.6122 12.5321 27.6669 12.5962 27.7339 12.6524C27.8009 12.7072 27.8744 12.7482 27.9565 12.7778L30.5212 13.723L18.5603 18.1311L6.59944 13.723L9.16407 12.7778C9.24764 12.749 9.32256 12.7072 9.38956 12.651C9.458 12.5955 9.51347 12.5292 9.55813 12.4536C9.60208 12.378 9.63306 12.298 9.6489 12.2123C9.66403 12.1265 9.66547 12.0387 9.65034 11.9529C9.63522 11.8672 9.6064 11.7858 9.56318 11.7101C9.51995 11.6345 9.46448 11.5675 9.39892 11.5106C9.33193 11.4551 9.25701 11.4105 9.17488 11.3816C9.09275 11.3514 9.00774 11.3363 8.92057 11.3363C8.82692 11.3363 8.73831 11.3528 8.65259 11.3867L4.19689 13.0278C3.9606 13.1034 3.80211 13.259 3.72142 13.4946L0.112202 19.2715C0.083386 19.3183 0.0603323 19.3673 0.0416018 19.4192C0.0235917 19.4711 0.0113464 19.5244 0.00486272 19.5798C-0.00162091 19.6346 -0.00162091 19.6886 0.00486272 19.7434C0.0113464 19.7988 0.0228721 19.8521 0.0401618 19.904C0.0581719 19.9559 0.0819453 20.0063 0.110041 20.0531C0.138857 20.1 0.173436 20.1432 0.210897 20.1821C0.249799 20.221 0.291584 20.257 0.33841 20.2858C0.383795 20.3161 0.433502 20.3413 0.485371 20.3608L3.71134 21.5501V30.0595C3.71134 30.2152 3.75672 30.3571 3.84533 30.4831C3.93394 30.6107 4.05137 30.7021 4.19689 30.7555L18.3046 35.9524C18.4753 36.0158 18.6475 36.0158 18.8182 35.9524L32.9259 30.7555C33.0714 30.7021 33.1888 30.6114 33.2774 30.4831C33.366 30.3564 33.4114 30.2152 33.4114 30.0595V21.5501L36.6374 20.3608C36.6892 20.342 36.739 20.3168 36.7843 20.2858C36.8312 20.257 36.8729 20.221 36.9118 20.1821C36.95 20.1432 36.9839 20.1 37.012 20.0531C37.0408 20.0063 37.0653 19.9559 37.0826 19.904C37.1006 19.8521 37.1114 19.7988 37.1179 19.7434C37.1244 19.6886 37.1244 19.6346 37.1179 19.5798V19.5791ZM1.8527 19.283L4.76241 14.6285L17.448 19.301V19.3025L14.5383 23.9556L1.8527 19.283ZM17.8176 34.1903L5.19537 29.5409V22.0955L14.5916 25.557C14.6716 25.5858 14.7537 25.601 14.8394 25.6024C14.9244 25.6039 15.008 25.5894 15.0872 25.5621C15.1679 25.5354 15.2414 25.4951 15.3084 25.4418C15.3754 25.3885 15.4309 25.3251 15.477 25.253L17.8176 21.5084V34.1903ZM31.9252 29.5409L19.303 34.1903V21.5084L21.6436 25.253C21.689 25.3251 21.7445 25.3885 21.8122 25.4418C21.8792 25.4951 21.9527 25.5354 22.0334 25.5621C22.1133 25.5902 22.1969 25.6039 22.2812 25.6024C22.3669 25.601 22.4498 25.5858 22.529 25.557L31.9252 22.0955V29.5409ZM22.5823 23.9556L19.674 19.3025L32.3589 14.6292L35.2686 19.2837L22.583 23.9563L22.5823 23.9556Z" fill="black"/>
<path d="M12.604 11.525C12.604 11.525 14.8538 14.8137 18.6035 14.8137C22.3532 14.8137 24.603 11.525 24.603 11.525C24.6708 11.4335 24.7104 11.3298 24.7205 11.2167C24.7298 11.1029 24.7104 10.9955 24.6578 10.8939C24.6066 10.7916 24.5317 10.7102 24.4337 10.6505C24.3372 10.5892 24.2299 10.5597 24.1153 10.559C24.0101 10.5582 23.9122 10.5827 23.8207 10.6324C23.7277 10.6821 23.6543 10.7499 23.5966 10.837C23.5966 10.837 21.617 13.6048 18.6021 13.6048C15.5872 13.6048 13.6075 10.837 13.6075 10.837C13.5492 10.7513 13.4742 10.685 13.382 10.6368C13.2891 10.5892 13.1918 10.5669 13.0874 10.5683C12.9743 10.5712 12.8698 10.6022 12.774 10.662C12.6782 10.7218 12.6054 10.8025 12.5543 10.9026C12.5031 11.0027 12.4822 11.1086 12.4909 11.2203C12.5003 11.3327 12.537 11.4335 12.6026 11.5257L12.604 11.525Z" fill="black"/>
<path d="M4.76242 14.6285L1.85271 19.283L14.5383 23.9556L17.448 19.3018L4.76242 14.6285Z" fill="#FF0000"/>
<path d="M19.6733 19.3018L22.5823 23.9556L35.2679 19.283L32.3582 14.6285L19.6733 19.3018Z" fill="#FF0000"/>
<path d="M13.7344 7.76578C14.8973 7.15706 15.3465 5.7209 14.7378 4.55801C14.1291 3.39513 12.6929 2.94589 11.53 3.55461C10.3671 4.16332 9.9179 5.59949 10.5266 6.76237C11.1353 7.92525 12.5715 8.37449 13.7344 7.76578Z" fill="#1E1F1D"/>
<path d="M14.0907 7.39671C14.467 6.87977 14.3529 6.15569 13.836 5.77942C13.3191 5.40316 12.595 5.51719 12.2187 6.03413C11.8425 6.55106 11.9565 7.27515 12.4734 7.65141C12.9904 8.02768 13.7144 7.91364 14.0907 7.39671Z" fill="white"/>
<path d="M24.3185 8.58361C23.0837 8.58361 21.9829 7.79909 21.5788 6.63203C21.3259 5.9001 21.3728 5.11342 21.7106 4.41751C22.0492 3.72088 22.6385 3.19787 23.3704 2.94501C23.6773 2.83911 23.9965 2.78508 24.3185 2.78508C25.5533 2.78508 26.654 3.5696 27.0582 4.73665C27.311 5.46858 27.2642 6.25526 26.9256 6.95117C26.587 7.6478 25.9978 8.17082 25.2658 8.42368C24.9589 8.5303 24.6398 8.58361 24.3178 8.58361H24.3185Z" fill="white"/>
<path d="M24.3185 8.68807C23.039 8.68807 21.8986 7.87545 21.4801 6.6659C21.2179 5.90803 21.2661 5.09254 21.617 4.37069C21.9678 3.64885 22.578 3.1071 23.3366 2.84488C23.655 2.73466 23.9849 2.67918 24.3185 2.67918C25.5979 2.67918 26.7383 3.4918 27.1569 4.70136C27.4191 5.45994 27.3708 6.27472 27.02 6.99656C26.6692 7.71841 26.059 8.26015 25.3004 8.52238C24.982 8.6326 24.652 8.68807 24.3178 8.68807H24.3185ZM24.3185 2.88882C24.008 2.88882 23.7011 2.94069 23.405 3.04299C22.6997 3.2872 22.1313 3.79149 21.8057 4.46218C21.4794 5.1336 21.434 5.89146 21.6782 6.59674C22.0672 7.72201 23.1284 8.47843 24.3185 8.47843C24.629 8.47843 24.9366 8.42656 25.2327 8.32427C25.9379 8.08005 26.5063 7.57577 26.832 6.90507C27.1583 6.23365 27.2037 5.47579 26.9595 4.77052C26.5697 3.64525 25.5086 2.88882 24.3192 2.88882H24.3185Z" fill="black"/>
<path d="M25.4426 7.76869C26.6055 7.15997 27.0548 5.72381 26.4461 4.56093C25.8373 3.39805 24.4012 2.94881 23.2383 3.55752C22.0754 4.16624 21.6262 5.6024 22.2349 6.76528C22.8436 7.92817 24.2798 8.37741 25.4426 7.76869Z" fill="#1E1F1D"/>
<path d="M25.7993 7.39983C26.1755 6.8829 26.0615 6.15881 25.5446 5.78255C25.0276 5.40628 24.3035 5.52032 23.9273 6.03726C23.551 6.55419 23.665 7.27827 24.182 7.65454C24.6989 8.03081 25.423 7.91677 25.7993 7.39983Z" fill="white"/>
<path d="M29.5457 5.92964C29.5457 2.65973 27.1749 0 24.2601 0C23.0477 0 21.8626 0.472585 20.9239 1.33059C20.1697 2.02001 19.5991 2.93348 19.2771 3.95285C18.7346 3.90675 18.1965 3.90675 17.654 3.95285C17.332 2.93348 16.7614 2.02001 16.0072 1.33059C15.0685 0.472585 13.8842 0 12.671 0C9.75624 0 7.38539 2.65973 7.38539 5.92964C7.38539 7.46986 7.91201 8.92652 8.84853 10.0244C8.02943 11.5502 7.59503 13.1668 7.58422 14.7402C8.06761 14.7726 8.55101 14.8 9.0344 14.823C9.0344 14.823 9.0344 14.8216 9.0344 14.8209C8.55749 14.7639 8.04888 14.7142 7.58494 14.7142C8.0496 14.7142 8.55749 14.7639 9.0344 14.8209C9.0344 14.8137 9.0344 14.8 9.0344 14.8C9.0344 14.8 9.50194 11.7944 10.3852 10.3522L10.7634 9.73481L10.2461 9.26079C9.34993 8.43881 8.83628 7.22421 8.83628 5.9282C8.83628 3.55591 10.5566 1.62667 12.671 1.62667C14.4598 1.62667 16.0346 3.04803 16.4164 5.00536L16.559 5.73801L17.2211 5.6386C18.0488 5.51469 18.8823 5.51469 19.7101 5.6386L20.3721 5.73801L20.5147 5.00536C20.8958 3.04731 22.4714 1.62595 24.2601 1.62595C26.3745 1.62595 28.0948 3.55591 28.0948 5.92748C28.0948 7.22349 27.5812 8.43809 26.685 9.26007L26.1678 9.73409L26.546 10.3515C27.4299 11.7937 27.8967 13.3318 27.8967 14.7992C27.8967 14.8007 27.8967 14.8021 27.8967 14.8036C28.3801 14.8151 28.8635 14.8302 29.3469 14.849C29.3469 14.8324 29.3476 14.8158 29.3476 14.7992C29.3476 13.2072 28.9118 11.5682 28.0826 10.023C29.0191 8.92508 29.5457 7.46842 29.5457 5.9282V5.92964Z" fill="black"/>
<path d="M95.0621 4.78848H81.1922C81.17 4.78848 81.1479 4.78848 81.1241 4.78848C79.2424 4.82595 77.5463 5.42707 76.0784 6.57821C74.8353 7.55396 73.8306 8.74427 73.0899 10.1168C72.8957 10.4778 72.7169 10.8456 72.5518 11.2186C72.4922 11.067 72.4308 10.9171 72.3644 10.7673C71.6952 9.26365 70.6309 7.9303 69.2005 6.79959C67.6253 5.55819 65.4661 4.88044 62.784 4.79019C62.7449 4.79019 62.7074 4.78848 62.6682 4.78848H48.7012C47.2197 4.78848 45.8676 5.31467 44.7914 6.30916C43.6743 7.3428 43.0562 8.7 43.0017 10.236C43.0017 10.2752 43 10.316 43 10.3552V27.9153C43 29.797 44.524 31.3211 46.4057 31.3211H50.8962C52.7779 31.3211 54.302 29.797 54.302 27.9153V25.5006H63.2455C65.5751 25.5279 67.5793 24.9012 69.2039 23.6326C70.1098 22.9259 70.8693 22.1357 71.4704 21.2741C71.5981 21.9569 71.7633 22.6347 71.9694 23.3005C72.5483 25.1703 73.5173 26.8612 74.8472 28.3257C76.4394 30.078 78.5663 31.0758 80.998 31.2138C81.0627 31.2172 81.1275 31.2189 81.1922 31.2189H95.0621C96.9438 31.2189 98.4679 29.6948 98.4679 27.8131V23.3567C98.4679 21.475 96.9438 19.9509 95.0621 19.9509H82.5919C82.4404 19.7806 82.3416 19.6018 82.2769 19.3839C82.139 18.9224 82.0709 18.4711 82.0709 18.0011C82.0709 17.5311 82.1373 17.1224 82.2752 16.6899C82.3501 16.4532 82.4642 16.2489 82.6294 16.0513H95.0621C96.9438 16.0513 98.4679 14.5273 98.4679 12.6456V8.18913C98.4679 6.30745 96.9438 4.78337 95.0621 4.78337V4.78848Z" fill="black"/>
<path d="M154.755 9.31305H140.386C140.369 9.31305 140.354 9.31305 140.337 9.31305C137.983 9.34711 135.967 10.0606 134.344 11.4314C133.363 12.2607 132.566 13.1922 131.952 14.2054V8.09378C131.952 6.2121 130.428 4.68802 128.546 4.68802H124.055C122.174 4.68802 120.65 6.2121 120.65 8.09378V9.31134H111.682C111.665 9.31134 111.65 9.31134 111.633 9.31134C109.279 9.3454 107.263 10.0589 105.64 11.4297C104.208 12.6405 103.158 14.0624 102.519 15.6529C101.926 17.1293 101.625 18.6806 101.625 20.266C101.625 21.8514 101.935 23.3584 102.546 24.8399C103.195 26.4134 104.237 27.8217 105.642 29.0239C107.236 30.3879 109.431 31.1269 112.164 31.2206C112.203 31.2206 112.241 31.2223 112.28 31.2223H126.249C127.73 31.2223 129.082 30.6961 130.158 29.7016C131.177 28.7599 131.78 27.5458 131.919 26.1733C132.539 27.2171 133.348 28.1724 134.344 29.0239C135.938 30.3879 138.133 31.1269 140.866 31.2206C140.905 31.2206 140.943 31.2223 140.982 31.2223H154.751C156.633 31.2223 158.157 29.6982 158.157 27.8165V23.7262C158.157 23.3788 158.104 23.0434 158.009 22.7283C158.106 22.4133 158.157 22.0778 158.157 21.7304V18.7044C158.157 18.3996 158.116 18.105 158.041 17.8223C158.116 17.5414 158.157 17.2451 158.157 16.9402V12.7171C158.157 10.8354 156.633 9.31134 154.751 9.31134L154.755 9.31305Z" fill="black"/>
<path d="M251 5.79999C251 4.22483 250.414 2.80462 249.304 1.69605C248.194 0.587472 246.775 -1.52588e-05 245.2 -1.52588e-05C244.165 -1.52588e-05 243.196 0.253711 242.339 0.742438C241.483 0.253711 240.514 -1.52588e-05 239.478 -1.52588e-05C237.903 -1.52588e-05 236.483 0.585769 235.374 1.69605C234.62 2.45042 234.107 3.34614 233.857 4.33892C233.508 4.21972 233.138 4.15842 232.76 4.15842H228.27C226.565 4.15842 225.123 5.41855 224.895 7.10951L224.496 10.0691C224.495 10.0827 224.493 10.0964 224.491 10.11C224.406 10.8048 224.273 11.4416 224.096 11.9985C224.054 12.133 223.963 12.3425 223.684 12.6081C223.669 12.6217 223.657 12.6319 223.648 12.6388H221.886C220.823 12.6388 219.875 13.1258 219.25 13.8887C219.149 13.7218 219.035 13.5651 218.909 13.4187C219.607 12.4463 219.972 11.3003 219.972 10.0589C219.972 8.48373 219.386 7.06353 218.276 5.95495C217.165 4.84467 215.747 4.25889 214.172 4.25889C213.136 4.25889 212.169 4.51262 211.311 5.00134C210.454 4.51262 209.485 4.25889 208.45 4.25889C206.875 4.25889 205.455 4.84467 204.346 5.95495C204.234 6.06734 204.128 6.18144 204.026 6.29894C203.425 5.3334 202.354 4.69142 201.133 4.69142H196.642C196.247 4.69142 195.871 4.76124 195.518 4.88555C195.314 3.72929 194.771 2.68713 193.914 1.83058C192.804 0.720303 191.386 0.134509 189.81 0.134509C188.775 0.134509 187.808 0.38824 186.95 0.876967C186.093 0.38824 185.124 0.134509 184.089 0.134509C182.514 0.134509 181.093 0.720303 179.985 1.83058C179.251 2.56452 178.747 3.43299 178.488 4.39171H176.872C175.683 4.39171 174.638 4.99963 174.028 5.92089H168.756C166.874 5.92089 165.35 7.44497 165.35 9.32665V13.7831C165.35 14.4012 165.515 14.9802 165.801 15.4792C165.767 15.6733 165.749 15.8742 165.749 16.0786V21.836C165.735 22.4405 165.544 23.8471 164.437 26.5683C164.01 27.619 164.133 28.8127 164.766 29.7527C165.4 30.6927 166.459 31.2581 167.591 31.2581H172.514C173.332 31.2581 174.096 30.9669 174.692 30.4696C175.283 30.9617 176.043 31.2581 176.87 31.2581H181.361C182.229 31.2581 183.021 30.9328 183.622 30.3981C184.23 30.9379 185.029 31.2581 185.884 31.2581H190.807C191.941 31.2581 193 30.6944 193.633 29.7527C193.666 29.705 193.696 29.6539 193.727 29.6046C194.323 30.5939 195.404 31.2581 196.642 31.2581H201.133C203.015 31.2581 204.539 29.734 204.539 27.8523V23.5082H216.333C217.397 23.5082 218.346 23.0195 218.971 22.2566C219.567 23.2443 220.648 23.9084 221.886 23.9084H224.346C224.386 23.9084 224.427 23.9084 224.466 23.9067V27.8199C224.466 29.7016 225.99 31.2257 227.871 31.2257H233.326C233.391 31.2257 233.455 31.224 233.52 31.2206C235.817 31.0895 237.85 30.2891 239.565 28.8417C241.086 27.5577 242.288 25.9706 243.138 24.123C243.15 24.0957 243.163 24.0668 243.175 24.0395C243.889 22.3724 244.384 20.5827 244.648 18.7078L244.841 17.3234H247.029C248.911 17.3234 250.435 15.7993 250.435 13.9176V9.46119C250.435 9.14956 250.392 8.84814 250.314 8.56206C250.765 7.73106 251 6.79789 251 5.8034V5.79999ZM192.649 21.8343V16.0769C192.649 15.7772 192.61 15.4843 192.537 15.2067C192.736 14.7725 192.848 14.2906 192.848 13.7814V10.8831C192.981 10.8013 193.109 10.7111 193.235 10.6174V24.593C192.761 23.1268 192.658 22.2685 192.647 21.8326L192.649 21.8343ZM232.628 19.956H232.156C232.582 19.4554 232.97 18.9224 233.321 18.3587C233.251 18.6976 233.169 19.0177 233.075 19.3158C233.033 19.4503 232.943 19.6597 232.663 19.9254C232.648 19.939 232.636 19.9492 232.628 19.956Z" fill="black"/>
<path d="M50.8963 27.917H46.4058V10.3569C46.4279 9.73705 46.6612 9.22107 47.104 8.81068C47.5467 8.40028 48.0797 8.19594 48.7013 8.19594H62.67C64.6215 8.26235 66.0962 8.68977 67.0941 9.4765C68.0919 10.2632 68.8123 11.1555 69.2567 12.1534C69.6995 13.1513 69.9225 14.1611 69.9225 15.1795C69.9225 16.1978 69.7063 17.274 69.2737 18.2719C68.8412 19.2698 68.1209 20.1621 67.1111 20.9488C66.1013 21.7355 64.8207 22.1187 63.2694 22.0966H53.0249V17.6401H63.4686C63.8892 17.6401 64.2383 17.5022 64.5159 17.2246C64.7935 16.947 64.9978 16.6252 65.1306 16.2608C65.2635 15.8964 65.3299 15.5234 65.3299 15.1471C65.3299 14.7929 65.2635 14.4319 65.1306 14.0658C64.9978 13.6996 64.7918 13.3795 64.5159 13.1019C64.2383 12.8244 63.8892 12.6745 63.4686 12.6524H51.7613C51.1841 12.6745 50.8963 12.964 50.8963 13.5174V27.9187V27.917Z" fill="white"/>
<path d="M82.357 12.6507C81.5141 12.695 80.8108 13.0168 80.2454 13.6145C79.6801 14.2122 79.2748 14.8951 79.0313 15.6597C78.7877 16.4243 78.6651 17.2059 78.6651 18.0045C78.6651 18.8032 78.7809 19.5899 79.0142 20.3664C79.2475 21.143 79.6511 21.8241 80.2284 22.4116C80.804 22.9991 81.5141 23.3158 82.357 23.3601H95.0622V27.8165H81.1922C79.6392 27.728 78.3654 27.1354 77.3675 26.037C76.3697 24.9387 75.6544 23.6922 75.2219 22.2958C74.7894 20.8994 74.5731 19.469 74.5731 18.0045C74.5731 16.9181 74.694 15.8419 74.9392 14.7776C75.1828 13.7133 75.5659 12.6984 76.087 11.7345C76.6081 10.7707 77.3062 9.94481 78.1815 9.25685C79.0568 8.57059 80.0615 8.21469 81.1922 8.19255H95.0622V12.649H82.357V12.6507Z" fill="white"/>
<path d="M124.059 8.09547H128.549V25.6556C128.527 26.2771 128.294 26.7914 127.851 27.2018C127.407 27.6122 126.875 27.8165 126.254 27.8165H112.285C110.334 27.7501 108.859 27.2903 107.861 26.4355C106.863 25.5823 106.143 24.6185 105.698 23.5423C105.254 22.4678 105.033 21.3745 105.033 20.266C105.033 19.1574 105.249 17.9994 105.681 16.9232C106.114 15.8487 106.834 14.8832 107.844 14.03C108.852 13.1769 110.133 12.7392 111.686 12.7171H121.797V17.1735H111.553C111.131 17.1735 110.766 17.3455 110.455 17.6895C110.143 18.0335 109.916 18.432 109.773 18.8866C109.629 19.3413 109.557 19.7909 109.557 20.2336C109.557 20.6985 109.629 21.16 109.773 21.6146C109.918 22.0693 110.145 22.4678 110.455 22.8118C110.764 23.1557 111.131 23.338 111.553 23.3601H123.194C123.769 23.338 124.059 23.0502 124.059 22.495V8.09377V8.09547Z" fill="white"/>
<path d="M140.985 27.8182C139.034 27.7518 137.559 27.292 136.561 26.4372C135.563 25.584 134.843 24.6202 134.399 23.544C133.954 22.4695 133.733 21.3762 133.733 20.2676C133.733 19.1591 133.949 18.0011 134.382 16.9249C134.814 15.8504 135.535 14.8848 136.544 14.0317C137.552 13.1786 138.833 12.7409 140.386 12.7188H154.755V16.9419H140.587C140.098 16.9419 139.673 17.1088 139.306 17.4409C138.94 17.7729 138.675 18.2055 138.508 18.7385C138.341 19.2715 138.259 19.7925 138.259 20.3017C138.259 20.8568 138.343 21.4001 138.508 21.9314C138.673 22.4627 138.94 22.8901 139.306 23.2119C139.673 23.5338 140.098 23.7058 140.587 23.7279H154.755V27.8182H140.985ZM154.755 21.7304H140.553V18.7044H154.755V21.7304Z" fill="white"/>
<path d="M173.645 16.0769V21.7304C173.623 23.4163 173.247 25.4563 172.514 27.8506H167.591C168.611 25.3456 169.132 23.3499 169.154 21.8633V16.0769H173.645ZM168.756 9.32495H176.872V7.79576H181.362V9.32495H189.444V13.7814H181.362V27.8506H176.872V13.7814H168.756V9.32495ZM181.695 5.93281C181.695 5.26698 181.928 4.70163 182.393 4.23675C182.858 3.77186 183.423 3.53856 184.089 3.53856C184.755 3.53856 185.32 3.77186 185.785 4.23675C186.25 4.70163 186.483 5.26698 186.483 5.93281C186.483 6.59863 186.25 7.16399 185.785 7.62888C185.32 8.09377 184.755 8.32706 184.089 8.32706C183.423 8.32706 182.858 8.09377 182.393 7.62888C181.928 7.16399 181.695 6.59863 181.695 5.93281ZM184.755 16.0769H189.245V21.8633C189.267 23.3499 189.788 25.3439 190.808 27.8506H185.885C185.153 25.4563 184.777 23.4163 184.755 21.7304V16.0769ZM187.414 5.93281C187.414 5.26698 187.648 4.70163 188.113 4.23675C188.578 3.77186 189.143 3.53856 189.809 3.53856C190.475 3.53856 191.04 3.77186 191.505 4.23675C191.97 4.70163 192.203 5.26698 192.203 5.93281C192.203 6.59863 191.97 7.16399 191.505 7.62888C191.04 8.09377 190.475 8.32706 189.809 8.32706C189.143 8.32706 188.578 8.09377 188.113 7.62888C187.648 7.16399 187.414 6.59863 187.414 5.93281Z" fill="white"/>
<path d="M201.133 8.09548V15.6461H216.333V20.1025H201.133V27.8523H196.642V8.09548H201.133ZM206.054 10.0572C206.054 9.39137 206.287 8.82601 206.752 8.36113C207.217 7.89624 207.783 7.66295 208.448 7.66295C209.114 7.66295 209.68 7.89624 210.145 8.36113C210.609 8.82601 210.843 9.39137 210.843 10.0572C210.843 10.723 210.609 11.2884 210.145 11.7533C209.68 12.2181 209.114 12.4514 208.448 12.4514C207.783 12.4514 207.217 12.2181 206.752 11.7533C206.287 11.2884 206.054 10.723 206.054 10.0572ZM211.776 10.0572C211.776 9.39137 212.009 8.82601 212.474 8.36113C212.939 7.89624 213.504 7.66295 214.17 7.66295C214.836 7.66295 215.401 7.89624 215.866 8.36113C216.331 8.82601 216.564 9.39137 216.564 10.0572C216.564 10.723 216.331 11.2884 215.866 11.7533C215.401 12.2181 214.836 12.4514 214.17 12.4514C213.504 12.4514 212.939 12.2181 212.474 11.7533C212.009 11.2884 211.776 10.723 211.776 10.0572Z" fill="white"/>
<path d="M232.76 7.56247L232.495 9.45778H247.029V13.9142H241.874L241.275 18.2378C241.053 19.813 240.643 21.2979 240.044 22.6943C239.4 24.0906 238.508 25.2724 237.367 26.2363C236.224 27.2001 234.877 27.728 233.326 27.8165H227.872V23.3601H232.795C233.637 23.3158 234.375 22.994 235.007 22.3963C235.638 21.7986 236.076 21.1157 236.319 20.3511C236.563 19.5865 236.74 18.7487 236.851 17.8394L237.382 13.9142H231.596C231.441 14.4029 231.264 14.89 231.064 15.377C230.421 16.7734 229.528 17.9552 228.387 18.919C227.245 19.8828 225.898 20.4107 224.347 20.4993H221.886V16.0428H223.815C224.658 15.9985 225.396 15.6767 226.027 15.079C226.659 14.4813 227.097 13.7984 227.34 13.0338C227.584 12.2692 227.761 11.4314 227.872 10.5221L228.27 7.56247H232.76ZM237.084 5.8C237.084 5.13417 237.317 4.56881 237.782 4.10392C238.247 3.63904 238.813 3.40575 239.478 3.40575C240.144 3.40575 240.71 3.63904 241.174 4.10392C241.639 4.56881 241.873 5.13417 241.873 5.8C241.873 6.46582 241.639 7.03117 241.174 7.49606C240.71 7.96094 240.144 8.19425 239.478 8.19425C238.813 8.19425 238.247 7.96094 237.782 7.49606C237.317 7.03117 237.084 6.46582 237.084 5.8ZM242.806 5.8C242.806 5.13417 243.039 4.56881 243.504 4.10392C243.969 3.63904 244.534 3.40575 245.2 3.40575C245.866 3.40575 246.431 3.63904 246.896 4.10392C247.361 4.56881 247.594 5.13417 247.594 5.8C247.594 6.46582 247.361 7.03117 246.896 7.49606C246.431 7.96094 245.866 8.19425 245.2 8.19425C244.534 8.19425 243.969 7.96094 243.504 7.49606C243.039 7.03117 242.806 6.46582 242.806 5.8Z" fill="white"/>
</svg>
