<svg width="948" height="137" viewBox="0 0 948 137" fill="none" xmlns="http://www.w3.org/2000/svg">
<path d="M108 54.4L113.4 52.1L108.4 50.2L108 54.4Z" fill="white"/>
<path d="M30.2 49.3L25.2 52.1L30.2 54.4V49.3Z" fill="white"/>
<path d="M36.1001 47.3001C35.1001 50.8001 34.5001 54.1001 34.3001 55.5001L69.2001 68.7001L103.5 55.7001C103.5 50.3001 101.7 44.6001 98.5001 39.3001L97.1001 37.0001L99.0001 35.2001C102.3 32.1001 104.2 27.5001 104.2 22.6001C104.2 13.6001 97.9001 6.40015 90.1001 6.40015C82.3001 6.40015 77.7001 11.8001 76.3001 19.2001L75.8001 22.0001L73.4001 21.6001C70.4001 21.1001 67.3001 21.1001 64.2001 21.6001L61.8001 22.0001L61.3001 19.2001C59.9001 11.8001 54.1001 6.40015 47.5001 6.40015C40.9001 6.40015 33.4001 13.7001 33.4001 22.6001C33.4001 31.5001 35.3001 32.1001 38.6001 35.2001L40.5001 37.0001L39.1001 39.3001C38.0001 41.1001 37.2001 43.4001 36.4001 45.9001C36.4001 46.1001 36.4001 46.2001 36.4001 46.4001C36.4001 46.7001 36.2001 47.0001 36.1001 47.3001Z" fill="white"/>
<path d="M47.4001 32.7002C42.9001 32.7002 38.8001 29.7002 37.3001 25.3002C36.4001 22.5002 36.5001 19.6002 37.8001 16.9002C39.0001 14.3002 41.2001 12.3002 43.9001 11.3002C45.0001 10.9002 46.2001 10.7002 47.4001 10.7002C51.9001 10.7002 56.0001 13.7002 57.5001 18.1002C58.4001 20.9002 58.3001 23.8002 57.0001 26.5002C55.8001 29.1002 53.6001 31.1002 50.9001 32.1002C49.8001 32.5002 48.6001 32.7002 47.4001 32.7002Z" fill="white"/>
<path d="M47.4001 33.1001C42.7001 33.1001 38.5001 30.0001 37.0001 25.5001C36.0001 22.6001 36.2001 19.6001 37.5001 16.8001C38.8001 14.1001 41.0001 12.0001 43.8001 11.0001C45.0001 10.6001 46.2001 10.4001 47.4001 10.4001C52.1001 10.4001 56.3001 13.5001 57.8001 18.0001C58.8001 20.9001 58.6001 23.9001 57.3001 26.7001C56.0001 29.4001 53.8001 31.5001 51.0001 32.5001C49.8001 32.9001 48.6001 33.1001 47.4001 33.1001ZM47.4001 11.2001C46.3001 11.2001 45.1001 11.4001 44.0001 11.8001C41.4001 12.7001 39.3001 14.6001 38.1001 17.2001C36.9001 19.7001 36.7001 22.6001 37.6001 25.3001C39.0001 29.5001 42.9001 32.4001 47.3001 32.4001C51.7001 32.4001 49.6001 32.2001 50.7001 31.8001C53.3001 30.9001 55.4001 29.0001 56.6001 26.4001C57.8001 23.9001 58.0001 21.0001 57.1001 18.3001C55.7001 14.1001 51.8001 11.2001 47.4001 11.2001Z" fill="black"/>
<path d="M20.1001 75.4001V111.8L69.3001 130.5L118.4 111.8V76.8001L20.1001 75.4001Z" fill="#FF0000"/>
<path d="M137.5 74.2C137.5 74 137.5 73.8 137.4 73.6C137.4 73.4 137.2 73.2 137.1 73L123.8 51.2C123.5 50.3 122.9 49.7 122.1 49.4C122.1 49.4 122.1 49.4 122 49.4L105.7 43.2C105.4 43.1 105 43 104.6 43C104.3 43 104 43 103.7 43.2C103.4 43.3 103.1 43.5 102.9 43.7C102.7 43.9 102.5 44.2 102.3 44.5C102.2 44.8 102 45.1 102 45.4C102 45.7 102 46 102 46.4C102 46.7 102.2 47 102.3 47.3C102.5 47.6 102.7 47.8 102.9 48C103.1 48.2 103.4 48.4 103.7 48.5L113.1 52.1L69.1 68.7L25.1 52.1L34.5 48.5C34.8 48.4 35.1 48.2 35.3 48C35.6 47.8 35.8001 47.5 35.9001 47.3C36.1001 47 36.2001 46.7 36.2001 46.4C36.2001 46.1 36.2001 45.7 36.2001 45.4C36.2001 45.1 36.0001 44.8 35.9001 44.5C35.7001 44.2 35.5 44 35.3 43.7C35.1 43.5 34.8 43.3 34.5 43.2C34.2 43.1 33.9 43 33.6 43C33.3 43 32.9 43 32.6 43.2L16.2 49.4C15.3 49.7 14.7 50.3 14.5 51.2L1.20005 73C1.10005 73.2 1.00005 73.4 0.900048 73.6C0.900048 73.8 0.800049 74 0.800049 74.2C0.800049 74.4 0.800049 74.6 0.800049 74.8C0.800049 75 0.800048 75.2 0.900048 75.4C0.900048 75.6 1.10005 75.8 1.20005 76C1.30005 76.2 1.40005 76.3 1.60005 76.5C1.70005 76.6 1.90005 76.8 2.10005 76.9C2.30005 77 2.40005 77.1 2.60005 77.2L14.5 81.7V113.8C14.5 114.4 14.7 114.9 15 115.4C15.3 115.9 15.8 116.2 16.3 116.4L68.2 136C68.8 136.2 69.5 136.2 70.1 136L122 116.4C122.5 116.2 123 115.9 123.3 115.4C123.6 114.9 123.8 114.4 123.8 113.8V81.7L135.7 77.2C135.9 77.2 136.1 77 136.2 76.9C136.4 76.8 136.5 76.7 136.7 76.5C136.8 76.4 137 76.2 137.1 76C137.2 75.8 137.3 75.6 137.4 75.4C137.5 75.2 137.5 75 137.5 74.8C137.5 74.6 137.5 74.4 137.5 74.2ZM7.80005 73.1L18.5 55.5L65.2 73.1L54.5 90.7L7.80005 73.1ZM66.5 129.3L20.1 111.8V83.7L54.7001 96.8C55.0001 96.9 55.3 97 55.6 97C55.9 97 56.2 97 56.5 96.8C56.8 96.7 57.1001 96.5 57.3001 96.3C57.5001 96.1 57.8001 95.9 57.9001 95.6L66.5 81.5V129.4V129.3ZM118.4 111.8L72 129.3V81.4L80.6 95.5C80.8 95.8 81 96 81.2 96.2C81.4 96.4 81.7 96.6 82 96.7C82.3 96.8 82.6 96.9 82.9 96.9C83.2 96.9 83.5 96.9 83.8 96.7L118.4 83.6V111.7V111.8ZM84 90.7L73.3 73.1L120 55.5L130.7 73.1L84 90.7Z" fill="black"/>
<path d="M47.3001 43.7999C47.3001 43.7999 55.6001 56.1999 69.4001 56.1999C83.2001 56.1999 91.5001 43.7999 91.5001 43.7999C91.7001 43.4999 91.9001 43.0999 91.9001 42.5999C91.9001 42.1999 91.9001 41.8 91.7001 41.4C91.5001 41 91.2001 40.7 90.9001 40.5C90.5001 40.3 90.1001 40.2 89.7001 40.2C89.3001 40.2 89.0001 40.2 88.6001 40.5C88.3001 40.7 88.0001 40.8999 87.8001 41.2999C87.8001 41.2999 80.5001 51.6999 69.4001 51.6999C58.3001 51.6999 51.0001 41.2999 51.0001 41.2999C50.8001 40.9999 50.5001 40.7 50.2001 40.5C49.9001 40.3 49.5001 40.2 49.1001 40.2C48.7001 40.2 48.3001 40.2999 47.9001 40.5999C47.5001 40.7999 47.3001 41.1 47.1001 41.5C46.9001 41.9 46.8001 42.3 46.9001 42.7C46.9001 43.1 47.1001 43.5 47.3001 43.9V43.7999Z" fill="black"/>
<path d="M18.5 55.5L7.80005 73.1L54.4001 90.7L65.1 73.1L18.5 55.5Z" fill="#FF0000"/>
<path d="M73.3 73.1L84 90.7L130.7 73.1L120 55.5L73.3 73.1Z" fill="#FF0000"/>
<path d="M54.9999 17.2C57.3999 21.5 55.8999 27 51.6999 29.4C47.4999 31.9 42.1999 30.3 39.7999 26C37.3999 21.7 38.8999 16.2 43.0999 13.8C47.2999 11.3 52.5999 12.9 54.9999 17.2Z" fill="#1E1F1D"/>
<path d="M53.1 23.4999C54.3 25.5999 53.5 28.2999 51.5 29.4999C49.5 30.6999 46.9 29.9999 45.7 27.8999C44.5 25.7999 45.3 23.0999 47.3 21.8999C49.3 20.6999 51.9 21.3999 53.1 23.4999Z" fill="white"/>
<path d="M90.4001 32.7002C85.9001 32.7002 81.8001 29.7002 80.3001 25.3002C79.4001 22.5002 79.5001 19.6002 80.8001 16.9002C82.0001 14.3002 84.2001 12.3002 86.9001 11.3002C88.0001 10.9002 89.2001 10.7002 90.4001 10.7002C94.9001 10.7002 99.0001 13.7002 100.5 18.1002C101.4 20.9002 101.3 23.8002 100 26.5002C98.8001 29.1002 96.6001 31.1002 93.9001 32.1002C92.8001 32.5002 91.6001 32.7002 90.4001 32.7002Z" fill="white"/>
<path d="M90.4001 33.1001C85.7001 33.1001 81.5001 30.0001 80.0001 25.5001C79.0001 22.6001 79.2001 19.6001 80.5001 16.8001C81.8001 14.1001 84.0001 12.0001 86.8001 11.0001C88.0001 10.6001 89.2001 10.4001 90.4001 10.4001C95.1001 10.4001 99.3001 13.5001 100.8 18.0001C101.8 20.9001 101.6 23.9001 100.3 26.7001C99.0001 29.4001 96.8001 31.5001 94.0001 32.5001C92.8001 32.9001 91.6001 33.1001 90.4001 33.1001ZM90.4001 11.2001C89.3001 11.2001 88.1001 11.4001 87.0001 11.8001C84.4001 12.7001 82.3001 14.6001 81.1001 17.2001C79.9001 19.7001 79.7001 22.6001 80.6001 25.3001C82.0001 29.5001 85.9001 32.4001 90.3001 32.4001C94.7001 32.4001 92.6001 32.2001 93.7001 31.8001C96.3001 30.9001 98.4001 29.0001 99.6001 26.4001C100.8 23.9001 101 21.0001 100.1 18.3001C98.7001 14.1001 94.8001 11.2001 90.4001 11.2001Z" fill="black"/>
<path d="M98.1 17.2C100.5 21.5 99 27 94.8 29.4C90.6 31.9 85.3 30.3 82.9 26C80.5 21.7 82 16.2 86.2 13.8C90.4 11.3 95.7 12.9 98.1 17.2Z" fill="#1E1F1D"/>
<path d="M96.1 23.4999C97.3 25.5999 96.5 28.2999 94.5 29.4999C92.5 30.6999 89.9 29.9999 88.7 27.8999C87.5 25.7999 88.3001 23.0999 90.3001 21.8999C92.3001 20.6999 94.9 21.3999 96.1 23.4999Z" fill="white"/>
<path d="M109.6 22.7001C109.6 10.4001 100.9 0.300049 90.2 0.300049C79.5 0.300049 81.4 2.10005 77.9 5.30005C75.1 7.90005 73 11.4 71.8 15.2C69.8 15 67.8 15 65.8 15.2C64.6 11.4 62.5 7.90005 59.7 5.30005C56.2 2.10005 51.9 0.300049 47.4 0.300049C36.7 0.300049 28 10.3001 28 22.7001C28 35.1 29.9 34.0001 33.4 38.2001C30.4 44.0001 28.8 50.1 28.7 56C30.5 56.1 32.3 56.2001 34 56.3001C32.2 56.1001 30.4 55.9001 28.7 55.9001C30.4 55.9001 32.3 56.1001 34 56.3001C34 56.3001 35.7 45 39 39.5L40.4 37.2001L38.5 35.4001C35.2 32.3001 33.3 27.7 33.3 22.8C33.3 13.8 39.6 6.60005 47.4 6.60005C55.2 6.60005 59.8 12.0001 61.2 19.4001L61.7 22.2001L64.1 21.8C67.1 21.3 70.2 21.3 73.3 21.8L75.7 22.2001L76.2 19.4001C77.6 12.0001 83.4 6.60005 90 6.60005C96.6 6.60005 104.1 13.9 104.1 22.8C104.1 31.7 102.2 32.3001 98.9 35.4001L97 37.2001L98.4 39.5C101.7 44.9 103.4 50.7001 103.4 56.3001C105.2 56.3001 107 56.3 108.7 56.5C108.7 56.5 108.7 56.4001 108.7 56.3001C108.7 50.3001 107.1 44.1 104 38.3C107.4 34.2 109.4 28.7 109.4 22.8L109.6 22.7001Z" fill="black"/>
<path d="M201.5 95.0999C208.8 102 215.6 102.8 235.6 102.8C255.6 102.8 263 102.8 276.4 102.4V103.6C270.7 105.1 267.4 109.7 266.7 116.7H235.7C215.2 116.7 207.3 113.3 200.3 96.5999C195.6 103.3 188.5 111.8 183.8 116.5C183.8 118 182.9 118.8 181.9 119.3L174.2 102.5C177.6 101.6 182.2 100.1 187 98.5V67.5H174.8L174.2 64.4H185.3L192.3 55.1999L207.2 67C206.2 68.1 204.6 68.9 201.5 69.5V95.0999ZM178.6 20.4C214 24.3 201 51.4999 187 41.2999C186 33.9999 182.1 26.2 177.9 21L178.7 20.5L178.6 20.4ZM204.2 39.0999L203.3 36.0999H242.1C243.1 30.1999 243.8 22.2 244.3 16.7L265.1 20.5999C264.8 21.9999 263.6 22.9999 261.1 23.0999C257.3 26.8999 251.1 31.9999 245.4 36.0999H255.9L263.2 26.2C263.2 26.2 271.6 32.9 276.5 37.4C276.2 38.6 275 39.0999 273.5 39.0999H245.8C243.1 42.2999 239.8 46.1 236.7 49H248.6L255.4 41.7999L268.7 52C268.2 52.8 267 53.6 264.9 54V95.5C264.8 96.4 257.4 99.2 252.2 99.2H249.6V91.5H226.9V95.2C226.9 96.7 220.4 100 214.1 100H211.8V42.9L227.5 49H229.7C229.8 45.9 229.8 42.0999 229.7 39.0999H204.1H204.2ZM216 17.0999C246.3 20.4999 232.1 42.9999 220.2 33.0999C220 27.4999 217.6 21.5999 215.1 17.5999L216 17.0999ZM227 52V62H249.7V52H227ZM227 75.0999H249.7V65H227V75.0999ZM249.7 88.5V78.1999H227V88.5H249.7Z" fill="black"/>
<path d="M363.4 85.6999C372.9 92.7999 389.3 97.0999 403.8 98.2999V99.5999C397.9 101.3 393.6 106.6 392 114.3C376.4 108.8 366.7 99.7999 360.3 86.0999V115.1C360.3 116.2 353.1 118.8 346.5 118.8H343.7V96.2999C333.1 104.8 318.5 111.1 302.3 115.4L301.7 114.3C315 107.2 326.1 95.8999 332.8 85.5999H302.4L301.5 82.5999H343.8V70.7999C341.5 71.9999 337.7 73.2999 333.9 73.2999H331.9V54.1999C327.9 58.5999 322.2 64.4999 314.4 71.7999C314 73.2999 312.9 74.4999 311.7 74.8999L302 58.9999C307.3 57.8999 319.5 54.6999 331.9 50.9999V26.1999L345 31.3999C345.2 27.1999 345.4 21.2999 345.4 17.0999L364.6 19.6999C364.2 21.4999 362.8 22.4999 360.4 22.6999C357.6 25.3999 353.1 29.2999 349.8 31.8999H357.4L363.9 24.8999L377.2 34.8999C376.6 35.6999 375.4 36.4999 373.4 36.7999V49.6999C409.6 48.1999 403.7 75.3999 388.7 69.6999C385.4 63.4999 379 56.5999 373.4 51.9999V67.6999C373.3 68.5999 366 71.1999 360.9 71.1999H358.3V66.0999H345.8V68.7999C345.8 69.1999 345 69.8999 344 70.4999L364.2 72.1999C364 73.6999 363.2 74.7999 360.2 75.1999V82.4999H380.5L388.5 72.3999C388.5 72.3999 397.5 79.1999 403 83.7999C402.7 84.9999 401.5 85.4999 399.9 85.4999H363.3L363.4 85.6999ZM306.3 25.3999C340.9 29.0999 328.7 55.4999 314.8 45.6999C313.6 38.5999 309.4 31.0999 305.6 25.8999L306.4 25.3999H306.3ZM345.8 34.8999V47.4999H358.3V34.8999H345.8ZM358.3 63.1999V50.4999H345.8V63.1999H358.3ZM373.9 45.8999C377.6 39.8999 382 29.6999 383.9 23.9999L402.1 35.1999C401.7 36.0999 400.7 36.1999 398.9 35.6999C393.5 38.9999 382.3 43.8999 374.7 46.9999L373.9 45.8999Z" fill="black"/>
<path d="M516.6 103C516.6 103 525.1 109.6 530.1 114C529.8 115.2 528.6 115.7 527 115.7H428.8L427.9 112.7H470.9V99.2H437.8L436.9 96.2H470.9V87.6C468.9 88.5 466.7 89.3 464.4 90.1L463.5 88.7C476.4 80.6 482.5 71.3 485.4 60.1C482.5 56.6 479.3 53.3 476.3 50.7L477.2 49.9C480.9 50.3 484.2 51 487.1 51.7C487.6 47.7 487.9 43.5 488.1 39.1H479.9L478.9 36.1H488C488.1 30.3 488.1 24.2 488.1 17.5L506.4 19.1C506.1 20.6 505 21.7 502.6 22C502.5 26.9 502.4 31.7 502.2 36.1H505.5L512.2 29.1L524.7 38.7C524.1 39.5 522.4 40.1 520.6 40.4C519.7 51 520.6 67.1 523.2 71.4C523.7 72 524.3 71.9 524.7 71C525.9 68.5 527 65.3 528 62.1L529 62.3L528 75.6C530.3 80.2 531 84.1 529.1 86.6C525.1 91.1 518.7 88.4 515.3 84.7C507.9 75.9 506.5 57.3 506.7 39.2H502.1C501.7 45.9 501 52 499.4 57.6C511.9 67 505.1 80.3 494.8 74.8C494.3 73.6 493.7 72.4 493.1 71.1C489.2 76.4 483.7 81.1 475.9 85.2L490.3 86.3C490.1 87.8 489.4 88.9 486.4 89.3V96.2H500.9L508.2 86.7C508.2 86.7 516.4 93 521.3 97.5C521.1 98.7 519.9 99.2 518.3 99.2H486.4V112.7H509L516.4 103H516.6ZM458.5 62.1C459.6 60.8 460.7 59.3 461.5 57.9H434.5L433.5 54.9H462.1L465.2 51.8H462.1V49H447.9V50.2C447.9 51 443.9 53.4 437.4 53.4H435V30.5L449.4 35.9H461.1L466.3 30.5H429.6L428.7 27.5H447.7V17L466.1 18.4C466 19.8 465.2 20.9 462.2 21.4V27.5H463.6L469.9 19.7C469.9 19.7 477.1 25.1 481.5 28.8C481.2 30 480.1 30.5 478.6 30.5H467.4L478.6 38.7C478.1 39.3 476.9 40.1 475.2 40.5V48.3C475.1 48.8 472.6 50 469.7 50.9L478 58.1C477.1 59 476 59.2 473.8 59.3C471.2 60.5 468 61.7 464.7 62.6H465.7C465.5 64.3 464.4 65.1 462.2 65.4C468.3 65.4 474.9 65.3 481.4 65.1V66.7C476.2 68.1 469.9 69.6 462.2 71.4V78.1C462.2 86.8 460.4 90.9 446.7 92C446.5 88.5 446.3 85.8 445.1 84C444.1 82.6 442.7 81.2 438.6 80.5V79.1C438.6 79.1 445.6 79.6 447.1 79.6C448.6 79.6 448.5 79.3 448.5 78.2V74.4C444.6 75.2 440.4 76 435.9 77C435.1 78.4 433.9 79.2 432.7 79.4L428.2 65.9C432.5 66 439.7 66 448.5 65.9V61.4L458.4 62.2L458.5 62.1ZM462.2 46V38.9H448V46H462.2Z" fill="black"/>
<path d="M571.8 37.6C574.5 40.8 577.8 43.3 581.2 43.3C589.1 43.3 605.9 40 610.5 39C613.3 38.4 615.3 34.8 617.8 34.8C622.8 34.8 633.5 44.0001 633.5 47.9001C633.5 51.8001 627.9 53.2001 626.7 54.8001C623.1 59.7001 618.3 68.0001 612.2 74.9001C628.9 79.1001 643.2 88.2001 643.2 100.9C643.2 113.6 640.2 109 635.3 109C630.4 109 627.4 106 624.9 101C621.2 93.2 618.2 85.2001 608.8 78.4001C599.4 87.8001 582.7 103.1 555.1 110.6L554.1 108.8C578.3 96.3 604.1 69.1 611.8 49.5C612.4 47.9 611.8 47.3 610.7 47.3C608.2 47.3 595.7 51.4001 590.8 53.4001C587.3 54.7001 585.8 57.5 582.6 57.5C577.3 57.5 572 50.6 570.8 46.3C570.1 43.7 570.1 41.0001 570.4 38.2001L571.8 37.6Z" fill="black"/>
<path d="M665.2 72.8L666.2 72.1C668.2 73.7 670.5 74.6 671.6 74.6C672.7 74.6 675.1 73.7 677.9 71.3C683.3 66.7 692.4 56.2 695.2 53.2C698.1 50.2 700.6 48.4 703.8 48.4C707 48.4 711.1 50.2 715 53.7C729.7 66.8 743.6 79.4 752.4 85.1C757 88.1 759.7 93.3 759.7 98.4C759.7 103.5 757.2 105.3 753.5 105.3C749.8 105.3 743.9 101.4 735.2 92C729.2 85.2 713.6 67.2 708.8 62.4C706.7 60.3 705.2 59.5 704.2 59.5C703.2 59.5 702.4 60.3 700.8 62.4C697.5 66.8 690.8 77.9 688.1 83C686 86.6 684.4 89.9 680.2 89.9C676 89.9 669.9 86.4 667.1 81.9C665.6 79.5 665 76.8 665.1 72.8H665.2ZM727.2 47.4C727.2 40.5 732.7 35 739.6 35C746.5 35 752 40.5 752 47.4C752 54.3 746.5 59.8 739.6 59.8C732.7 59.8 727.2 54.3 727.2 47.4ZM731.8 47.4C731.8 51.7 735.3 55.2 739.6 55.2C743.9 55.2 747.4 51.7 747.4 47.4C747.4 43.1 743.9 39.6 739.6 39.6C735.3 39.6 731.8 43.1 731.8 47.4Z" fill="black"/>
<path d="M781.3 59.7C784.1 64 785.6 66.6 790.4 66.6C799.9 66.6 822.7 64.6 828.3 64C833.8 63.4 838.2 62.4 840.2 62.4C846 62.4 850.6 66.4 850.6 71.6C850.6 76.8 848 76.7 844.2 76.7C840.4 76.7 837.9 76.4 831.6 76.4C825.3 76.4 808.9 77.8 802.5 78.7C795.9 79.5 794.5 82.4 791.1 82.4C787.7 82.4 781.7 75 779.9 69.2C779.2 66.6 779.5 63 779.9 60.3L781.1 59.8L781.3 59.7Z" fill="black"/>
<path d="M876.4 37.6C879.1 40.8 882.4 43.3 885.8 43.3C893.7 43.3 910.5 40 915.1 39C917.9 38.4 919.9 34.8 922.4 34.8C927.4 34.8 938.1 44.0001 938.1 47.9001C938.1 51.8001 932.5 53.2001 931.3 54.8001C927.7 59.7001 922.9 68.0001 916.8 74.9001C933.5 79.1001 947.8 88.2001 947.8 100.9C947.8 113.6 944.8 109 939.9 109C935 109 932 106 929.5 101C925.8 93.2 922.8 85.2001 913.4 78.4001C904 87.8001 887.3 103.1 859.7 110.6L858.7 108.8C882.9 96.3 908.7 69.1 916.4 49.5C917 47.9 916.4 47.3 915.3 47.3C912.8 47.3 900.3 51.4001 895.4 53.4001C891.9 54.7001 890.4 57.5 887.2 57.5C881.9 57.5 876.6 50.6 875.4 46.3C874.7 43.7 874.7 41.0001 875 38.2001L876.4 37.6Z" fill="black"/>
</svg>
