<svg width="256" height="43" viewBox="0 0 256 43" fill="none" xmlns="http://www.w3.org/2000/svg">
<path d="M102.894 10.7408H89.1564C89.1345 10.7408 89.1117 10.7408 89.0898 10.7408C87.2268 10.7778 85.5452 11.3736 84.0929 12.512C82.8625 13.4768 81.8665 14.6548 81.1319 16.0132C81.0695 16.1286 81.0096 16.2458 80.9506 16.3629C80.2835 14.9953 79.2774 13.7743 77.9533 12.7311C76.3931 11.5017 74.2544 10.8326 71.5978 10.7416C71.5599 10.7399 71.5211 10.7399 71.4831 10.7399H57.6462C56.1788 10.7399 54.8396 11.2607 53.7744 12.2449C52.6688 13.2687 52.0557 14.6119 52.0017 16.132C52 16.1716 52 16.2112 52 16.2508V33.6303C52 35.4917 53.5104 37.0009 55.3734 37.0009H59.8204C61.6834 37.0009 63.1938 35.4917 63.1938 33.6303V31.2406H72.0532C74.3615 31.2684 76.3459 30.6474 77.955 29.3918C78.6044 28.8862 79.1753 28.3377 79.6678 27.7512C79.7682 28.1928 79.8854 28.6301 80.0195 29.064C80.593 30.9153 81.5519 32.5888 82.8709 34.0373C84.448 35.7706 86.5546 36.7591 88.9641 36.8964C89.0282 36.8998 89.0914 36.9015 89.1555 36.9015H102.893C104.756 36.9015 106.266 35.3923 106.266 33.5309V29.1205C106.266 27.2591 104.756 25.7499 102.893 25.7499H90.5412C90.3919 25.5814 90.2941 25.4053 90.2291 25.1896C90.0925 24.7337 90.0259 24.2863 90.0259 23.8211C90.0259 23.356 90.0925 22.9524 90.2291 22.5235C90.3033 22.29 90.4155 22.087 90.5791 21.8923H102.894C104.757 21.8923 106.267 20.3831 106.267 18.5217V14.1113C106.267 12.2499 104.757 10.7408 102.894 10.7408Z" fill="white"/>
<path d="M161.345 15.2177H147.113C147.097 15.2177 147.081 15.2177 147.064 15.2177C144.732 15.2514 142.736 15.9567 141.129 17.3151C140.764 17.6243 140.424 17.9471 140.109 18.2824V14.0128C140.109 12.1514 138.599 10.6422 136.736 10.6422H132.289C130.426 10.6422 128.915 12.1514 128.915 14.0128V15.2177H120.034C120.018 15.2177 120.002 15.2177 119.985 15.2177C117.653 15.2514 115.657 15.9567 114.05 17.3151C112.631 18.5142 111.591 19.9205 110.957 21.4946C110.369 22.9557 110.072 24.4919 110.072 26.0592C110.072 27.6265 110.379 29.1188 110.985 30.5859C111.627 32.1431 112.659 33.5368 114.052 34.7266C115.631 36.0765 117.805 36.8079 120.512 36.9006C120.55 36.9023 120.589 36.9023 120.627 36.9023H134.463C135.93 36.9023 137.27 36.3816 138.335 35.3973C138.973 34.8075 139.445 34.1098 139.743 33.3329C140.156 33.8233 140.619 34.2893 141.131 34.7266C142.71 36.0765 144.884 36.8079 147.591 36.9006C147.629 36.9023 147.668 36.9023 147.706 36.9023H161.345C163.208 36.9023 164.718 35.3931 164.718 33.5317V29.4828C164.718 29.139 164.667 28.8079 164.571 28.4953C164.667 28.1826 164.718 27.8515 164.718 27.5077V24.5121C164.718 24.2104 164.679 23.918 164.604 23.64C164.679 23.3619 164.718 23.0695 164.718 22.7678V18.5875C164.718 16.7261 163.208 15.2169 161.345 15.2169V15.2177Z" fill="white"/>
<path d="M256 11.741C256 10.1813 255.419 8.77657 254.32 7.67861C253.221 6.58064 251.815 6.00006 250.254 6.00006C249.229 6.00006 248.27 6.25033 247.421 6.734C246.573 6.25033 245.614 6.00006 244.589 6.00006C243.028 6.00006 241.623 6.58064 240.523 7.67861C239.776 8.42435 239.269 9.31249 239.02 10.2942C238.674 10.1762 238.307 10.1147 237.934 10.1147H233.487C231.798 10.1147 230.369 11.3626 230.144 13.0353L229.748 15.9652C229.746 15.9786 229.745 15.993 229.743 16.0064C229.659 16.6949 229.526 17.3243 229.351 17.8754C229.308 18.0086 229.219 18.2167 228.944 18.4779C228.929 18.4922 228.917 18.5015 228.908 18.5091H227.162C226.311 18.5091 225.534 18.8242 224.941 19.3442C224.923 19.3231 224.906 19.3012 224.888 19.2801C225.579 18.3178 225.94 17.1845 225.94 15.955C225.94 14.3953 225.359 12.9906 224.26 11.8927C223.162 10.7947 221.756 10.2141 220.195 10.2141C219.169 10.2141 218.21 10.4644 217.362 10.9481C216.513 10.4644 215.555 10.2141 214.529 10.2141C212.968 10.2141 211.562 10.7947 210.463 11.8927C210.353 12.0031 210.247 12.1168 210.147 12.2339C209.552 11.2784 208.491 10.6422 207.281 10.6422H202.834C202.444 10.6422 202.069 10.7096 201.72 10.8309C201.518 9.68831 200.98 8.65776 200.132 7.8109C199.033 6.71294 197.627 6.13236 196.066 6.13236C195.041 6.13236 194.082 6.38262 193.234 6.8663C192.385 6.38262 191.426 6.13236 190.401 6.13236C188.84 6.13236 187.434 6.71294 186.335 7.8109C185.609 8.53642 185.109 9.39591 184.853 10.3456H183.252C182.075 10.3456 181.04 10.9472 180.436 11.8598H175.214C173.351 11.8598 171.84 13.369 171.84 15.2304V19.6408C171.84 20.2517 172.003 20.8247 172.287 21.3193C172.253 21.5114 172.235 21.7095 172.235 21.9117V27.6088C172.222 28.2079 172.033 29.5991 170.935 32.2931C170.512 33.332 170.634 34.5143 171.261 35.4445C171.887 36.3757 172.937 36.9335 174.06 36.9335H178.935C179.744 36.9335 180.501 36.6453 181.094 36.154C181.678 36.6411 182.431 36.9335 183.252 36.9335H187.699C188.558 36.9335 189.343 36.6124 189.939 36.0833C190.542 36.6183 191.332 36.9335 192.179 36.9335H197.054C198.177 36.9335 199.226 36.3748 199.853 35.4437C199.884 35.3965 199.914 35.3493 199.943 35.3013C200.534 36.2796 201.607 36.9335 202.833 36.9335H207.28C209.143 36.9335 210.654 35.4243 210.654 33.5629V29.2638H222.336C223.187 29.2638 223.963 28.9486 224.556 28.4295C225.176 29.1803 226.112 29.659 227.162 29.659H229.6C229.639 29.659 229.679 29.659 229.719 29.6573V33.5301C229.719 35.3915 231.229 36.9006 233.092 36.9006H238.495C238.559 36.9006 238.623 36.8989 238.686 36.8956C240.961 36.7658 242.976 35.9746 244.674 34.5421C246.179 33.2714 247.37 31.6998 248.213 29.8721C248.225 29.8452 248.237 29.8174 248.249 29.7896C248.956 28.1405 249.447 26.3676 249.709 24.5138L249.898 23.1428H252.066C253.929 23.1428 255.439 21.6336 255.439 19.7722V15.3618C255.439 15.0534 255.398 14.7551 255.32 14.472C255.767 13.6487 255.999 12.726 255.999 11.7418L256 11.741ZM198.879 27.6105V21.9125C198.879 21.6151 198.84 21.3269 198.768 21.0522C198.966 20.6233 199.076 20.1455 199.076 19.6416V16.7741C199.207 16.6932 199.334 16.6039 199.46 16.5112V30.3457C198.989 28.8905 198.888 28.0436 198.879 27.6105ZM237.802 25.7508H237.335C237.756 25.2545 238.141 24.7278 238.489 24.17C238.42 24.5062 238.339 24.8222 238.245 25.1171C238.202 25.2502 238.113 25.4584 237.838 25.7196C237.823 25.7331 237.811 25.7432 237.802 25.7508Z" fill="white"/>
<path d="M59.8204 33.6303H55.3734V16.2508C55.3953 15.6365 55.6256 15.1267 56.065 14.7206C56.5043 14.3144 57.0314 14.1113 57.6462 14.1113H71.4823C73.4144 14.1771 74.8751 14.6001 75.8635 15.3787C76.8519 16.1581 77.5654 17.0412 78.0047 18.0288C78.4441 19.0164 78.6634 20.0149 78.6634 21.0244C78.6634 22.0339 78.4492 23.0981 78.0208 24.0857C77.5924 25.0733 76.8789 25.9572 75.8795 26.7358C74.8801 27.5153 73.6117 27.8936 72.0743 27.8717H57.6631V23.4613H72.2733C72.6899 23.4613 73.0366 23.3248 73.3107 23.0501C73.5847 22.7762 73.788 22.4577 73.9204 22.0954C74.0528 21.7331 74.1177 21.3665 74.1177 20.9924C74.1177 20.6418 74.052 20.2845 73.9204 19.9222C73.7888 19.5599 73.5856 19.2422 73.3107 18.9675C73.0357 18.6936 72.6899 18.5453 72.2733 18.5234H60.6772C60.1063 18.5453 59.8204 18.831 59.8204 19.3795V33.632V33.6303Z" fill="black"/>
<path d="M90.3092 18.5217C89.4743 18.5664 88.7777 18.8841 88.2177 19.4765C87.6577 20.0688 87.2563 20.7438 87.0151 21.5005C86.7731 22.2572 86.6525 23.0307 86.6525 23.8211C86.6525 24.6115 86.768 25.3901 86.9982 26.1578C87.2285 26.9263 87.6291 27.6012 88.2009 28.1818C88.7718 28.7632 89.4743 29.0758 90.3092 29.1197H102.894V33.5301H89.1564C87.619 33.4424 86.3565 32.8551 85.368 31.7689C84.3796 30.6828 83.6712 29.4483 83.2428 28.0655C82.8144 26.6827 82.6002 25.2679 82.6002 23.8194C82.6002 22.7442 82.7208 21.68 82.9628 20.6267C83.204 19.5734 83.5827 18.5698 84.0996 17.6151C84.6158 16.6603 85.3073 15.843 86.1751 15.163C87.0421 14.483 88.0364 14.1316 89.1564 14.1097H102.894V18.5201H90.3092V18.5217Z" fill="black"/>
<path d="M132.289 14.0128H136.736V31.3923C136.714 32.0066 136.483 32.5172 136.044 32.9225C135.605 33.3287 135.078 33.5317 134.463 33.5317H120.627C118.694 33.466 117.234 33.011 116.246 32.1658C115.257 31.3215 114.544 30.3668 114.104 29.3025C113.665 28.2383 113.446 27.158 113.446 26.06C113.446 24.9621 113.66 23.8169 114.088 22.7518C114.517 21.6875 115.23 20.7328 116.23 19.8885C117.229 19.0442 118.497 18.6102 120.035 18.5883H134.395V22.9987H119.903C119.486 22.9987 119.123 23.1689 118.816 23.5085C118.508 23.8489 118.283 24.2441 118.141 24.6933C117.997 25.1432 117.926 25.5873 117.926 26.0263C117.926 26.4872 117.997 26.9431 118.141 27.3922C118.283 27.8422 118.508 28.2374 118.816 28.577C119.123 28.9174 119.486 29.0986 119.903 29.1205H131.434C132.005 29.0986 132.29 28.8138 132.29 28.2644V14.0128H132.289Z" fill="black"/>
<path d="M147.706 33.5317C145.773 33.466 144.313 33.011 143.325 32.1658C142.336 31.3215 141.623 30.3668 141.184 29.3025C140.744 28.2383 140.525 27.158 140.525 26.06C140.525 24.9621 140.739 23.8169 141.168 22.7518C141.596 21.6875 142.309 20.7328 143.309 19.8885C144.308 19.0442 145.577 18.6102 147.114 18.5883H161.346V22.7687H147.311C146.828 22.7687 146.406 22.933 146.043 23.2624C145.68 23.5919 145.417 24.0191 145.252 24.5458C145.087 25.0724 145.005 25.5881 145.005 26.0929C145.005 26.6414 145.087 27.179 145.252 27.7057C145.416 28.2324 145.68 28.6554 146.043 28.973C146.406 29.2916 146.828 29.4618 147.311 29.4828H161.346V33.5317H147.707H147.706ZM161.345 27.5077H144.219V24.5121H161.345V27.5077Z" fill="black"/>
<path d="M180.055 21.9125V27.5085C180.033 29.1761 179.66 31.1951 178.935 33.5654H174.06C175.07 31.0864 175.586 29.1112 175.608 27.6408V21.9134H180.055V21.9125ZM175.212 15.2304H183.25V13.7161H187.697V15.2304H195.702V19.6408H187.697V33.5638H183.25V19.6408H175.212V15.2304ZM188.028 11.8733C188.028 11.2152 188.258 10.6557 188.719 10.1947C189.18 9.73381 189.74 9.50377 190.399 9.50377C191.058 9.50377 191.618 9.73381 192.079 10.1947C192.54 10.6557 192.771 11.2152 192.771 11.8733C192.771 12.5314 192.54 13.0909 192.079 13.5518C191.618 14.0128 191.058 14.2428 190.399 14.2428C189.74 14.2428 189.18 14.0128 188.719 13.5518C188.258 13.0909 188.028 12.5314 188.028 11.8733ZM191.059 21.9125H195.506V27.64C195.527 29.1104 196.044 31.0855 197.054 33.5646H192.179C191.454 31.1951 191.08 29.1761 191.059 27.5077V21.9117V21.9125ZM193.693 11.8733C193.693 11.2152 193.923 10.6557 194.385 10.1947C194.846 9.73381 195.406 9.50377 196.065 9.50377C196.723 9.50377 197.283 9.73381 197.745 10.1947C198.206 10.6557 198.436 11.2152 198.436 11.8733C198.436 12.5314 198.206 13.0909 197.745 13.5518C197.283 14.0128 196.723 14.2428 196.065 14.2428C195.406 14.2428 194.846 14.0128 194.385 13.5518C193.923 13.0909 193.693 12.5314 193.693 11.8733Z" fill="black"/>
<path d="M207.28 14.0127V21.4845H222.336V25.8949H207.28V33.5646H202.833V14.0127H207.28ZM212.157 15.9542C212.157 15.2961 212.387 14.7366 212.848 14.2757C213.31 13.8147 213.87 13.5847 214.528 13.5847C215.187 13.5847 215.747 13.8147 216.208 14.2757C216.669 14.7366 216.9 15.2961 216.9 15.9542C216.9 16.6123 216.669 17.1718 216.208 17.6327C215.747 18.0937 215.187 18.3237 214.528 18.3237C213.87 18.3237 213.31 18.0937 212.848 17.6327C212.387 17.1718 212.157 16.6123 212.157 15.9542ZM217.822 15.9542C217.822 15.2961 218.053 14.7366 218.514 14.2757C218.975 13.8147 219.535 13.5847 220.194 13.5847C220.852 13.5847 221.412 13.8147 221.874 14.2757C222.335 14.7366 222.565 15.2961 222.565 15.9542C222.565 16.6123 222.335 17.1718 221.874 17.6327C221.412 18.0937 220.852 18.3237 220.194 18.3237C219.535 18.3237 218.975 18.0937 218.514 17.6327C218.053 17.1718 217.822 16.6123 217.822 15.9542Z" fill="black"/>
<path d="M237.934 13.4861L237.671 15.3627H252.067V19.7731H246.96L246.367 24.052C246.147 25.6101 245.741 27.0805 245.149 28.4624C244.511 29.8452 243.627 31.0131 242.496 31.9678C241.364 32.9225 240.03 33.4441 238.494 33.5309H233.091V29.1205H237.967C238.801 29.0767 239.531 28.7582 240.158 28.1658C240.784 27.5734 241.217 26.8985 241.459 26.1418C241.7 25.3851 241.876 24.5567 241.986 23.6568L242.513 19.7731H236.781C236.627 20.2559 236.451 20.7387 236.254 21.2216C235.616 22.6043 234.732 23.7722 233.601 24.727C232.47 25.6817 231.135 26.2033 229.599 26.2901H227.161V21.8797H229.072C229.906 21.8359 230.636 21.5173 231.263 20.925C231.889 20.3326 232.322 19.6576 232.564 18.9009C232.805 18.1442 232.981 17.3159 233.091 16.416L233.487 13.4861H237.934ZM242.216 11.741C242.216 11.0829 242.447 10.5234 242.908 10.0624C243.369 9.60152 243.929 9.37148 244.588 9.37148C245.246 9.37148 245.806 9.60152 246.268 10.0624C246.729 10.5234 246.959 11.0829 246.959 11.741C246.959 12.3991 246.729 12.9586 246.268 13.4195C245.806 13.8805 245.246 14.1105 244.588 14.1105C243.929 14.1105 243.369 13.8805 242.908 13.4195C242.447 12.9586 242.216 12.3991 242.216 11.741ZM247.883 11.741C247.883 11.0829 248.113 10.5234 248.574 10.0624C249.036 9.60152 249.596 9.37148 250.254 9.37148C250.913 9.37148 251.473 9.60152 251.934 10.0624C252.396 10.5234 252.626 11.0829 252.626 11.741C252.626 12.3991 252.396 12.9586 251.934 13.4195C251.473 13.8805 250.913 14.1105 250.254 14.1105C249.596 14.1105 249.036 13.8805 248.574 13.4195C248.113 12.9586 247.883 12.3991 247.883 11.741Z" fill="black"/>
<g clip-path="url(#clip0_97_358)">
<path d="M44.3215 22.994C44.3215 22.994 44.3215 22.9936 44.3215 22.9933C44.2992 22.7961 44.2545 22.5994 44.1891 22.4082L44.1754 22.369C44.1077 22.184 44.0227 22.0088 43.9228 21.8477L40.0805 15.7061C39.7617 15.0076 39.1907 14.4956 38.4467 14.2481C38.4467 14.2481 38.4463 14.2481 38.4459 14.2481L34.8805 12.9363C35.6747 11.5928 36.102 10.0229 36.102 8.39436C36.1016 3.76559 32.645 0 28.3966 0C26.5877 0 24.8304 0.694999 23.448 1.9575C22.9334 2.42722 22.4799 2.96656 22.0964 3.56026C21.713 2.96695 21.2595 2.42761 20.7449 1.9575C19.3629 0.694999 17.6056 0 15.7967 0C11.5483 0 8.09172 3.76559 8.09172 8.39396C8.09172 10.048 8.53231 11.6409 9.35003 12.9977L5.93383 14.2539C5.19718 14.5039 4.63205 15.0146 4.31601 15.71L0.478806 21.843L0.476065 21.8473C0.376199 22.008 0.291215 22.1833 0.223463 22.3683L0.209364 22.4082C0.144353 22.5978 0.100099 22.7934 0.0773844 22.9889C0.0531033 23.1974 0.0531033 23.4086 0.0773844 23.6171C0.100491 23.8165 0.144353 24.0117 0.208189 24.1986C0.270459 24.3809 0.353093 24.5589 0.453742 24.7278L0.473715 24.7603C0.577497 24.9273 0.700469 25.0845 0.839498 25.228L0.862605 25.2515C1.00868 25.3974 1.16024 25.5198 1.32512 25.625C1.49587 25.7357 1.67837 25.8272 1.86831 25.8972L4.09513 26.717V34.5931C4.09513 35.1614 4.26784 35.7082 4.59485 36.1748C4.9199 36.6398 5.37224 36.9883 5.90446 37.1838L21.24 42.826C21.554 42.9421 21.8775 43.0004 22.2002 43.0004C22.5221 43.0004 22.8437 42.9425 23.1554 42.8271L38.4944 37.1838C39.0278 36.9879 39.4817 36.6382 39.8068 36.1713C40.1322 35.7054 40.3042 35.1598 40.3042 34.5931V26.7166L42.5302 25.8972C42.7205 25.8272 42.903 25.7357 43.0742 25.625C43.2386 25.5202 43.3902 25.3978 43.5363 25.2519L43.5598 25.228C43.7039 25.079 43.83 24.9163 43.9342 24.7442C44.0395 24.5722 44.1261 24.3883 44.1911 24.1986C44.2553 24.0109 44.2996 23.8138 44.3223 23.612C44.3458 23.407 44.3458 23.199 44.3223 22.994H44.3215Z" fill="white"/>
<path d="M33.6634 17.5342L35.2577 16.8517L33.7797 16.3315L33.6634 17.5342Z" fill="white"/>
<path d="M10.6633 16.0558L9.18295 16.8517L10.6633 17.5342V16.0558Z" fill="white"/>
<path d="M12.4112 15.4777C12.4088 15.482 12.4053 15.4852 12.4029 15.4895C12.119 16.4962 11.9408 17.4524 11.8735 17.8416L22.1996 21.642L32.3487 17.9069C32.324 16.3499 31.8192 14.7245 30.882 13.1976L30.4708 12.5272L31.0328 12.0125C32.0068 11.1204 32.5657 9.80157 32.5657 8.39436C32.5657 5.81892 30.6952 3.72336 28.3968 3.72336C26.4519 3.72336 24.7393 5.26628 24.325 7.39234L24.1699 8.18747L23.4497 8.07952C22.5497 7.94459 21.6435 7.94459 20.7439 8.07952L20.0237 8.18747L19.8686 7.39234C19.4539 5.26628 17.7416 3.72336 15.7968 3.72336C13.4979 3.72336 11.6279 5.81892 11.6279 8.39436C11.6279 9.80157 12.1868 11.1204 13.1607 12.0125L13.7227 12.5272L13.3115 13.1976C13.0006 13.7044 12.737 14.3889 12.5228 15.0831C12.522 15.1273 12.5181 15.1719 12.5102 15.2161C12.4922 15.3095 12.4593 15.396 12.4112 15.4785V15.4777Z" fill="white"/>
<path d="M15.7299 11.2721C14.3873 11.2721 13.1905 10.4203 12.7515 9.15273C12.4762 8.358 12.5271 7.50421 12.8952 6.7478C13.2634 5.9914 13.9041 5.42351 14.6995 5.14856C15.0335 5.03318 15.3801 4.97452 15.7302 4.97452C17.0728 4.97452 18.2696 5.82635 18.709 7.09393C18.9843 7.88867 18.9334 8.74245 18.5653 9.49886C18.1975 10.2553 17.5564 10.8232 16.761 11.0981C16.427 11.2135 16.0804 11.2721 15.7302 11.2721H15.7299Z" fill="white"/>
<path d="M15.7299 11.3859C14.3392 11.3859 13.0989 10.5036 12.6438 9.18988C12.3587 8.36659 12.4116 7.48151 12.7926 6.69812C13.1741 5.91473 13.8379 5.32612 14.6623 5.04139C15.0085 4.92171 15.3676 4.86148 15.7302 4.86148C17.1209 4.86148 18.3612 5.74382 18.8163 7.05716C19.1014 7.88044 19.0485 8.76552 18.6675 9.54891C18.2864 10.3323 17.6222 10.9209 16.7978 11.2056C16.452 11.3253 16.0925 11.3859 15.7299 11.3859ZM15.7302 5.08871C15.393 5.08871 15.0586 5.14503 14.7367 5.2565C13.9699 5.52167 13.3523 6.06883 12.9974 6.79786C12.6426 7.52688 12.5937 8.35017 12.8588 9.11596C13.2822 10.3378 14.4359 11.1587 15.7299 11.1587C16.0674 11.1587 16.4015 11.1024 16.7234 10.9909C17.4902 10.7258 18.1078 10.1786 18.4627 9.44957C18.8175 8.72055 18.8664 7.89765 18.6013 7.13147C18.1779 5.90965 17.0242 5.08871 15.7302 5.08871Z" fill="black"/>
<path d="M7.66812 23.5631V34.0311L22.2215 39.43L36.7307 34.0311V23.9765L7.66812 23.5631Z" fill="#FF0000"/>
<path d="M42.376 23.2146C42.369 23.154 42.3553 23.0965 42.3361 23.0402C42.3153 22.9839 42.2907 22.9303 42.2589 22.8794L38.3332 16.6041C38.2451 16.3499 38.0732 16.1825 37.8174 16.1C37.8065 16.0957 37.7955 16.0929 37.7857 16.089L32.9726 14.3185C32.8708 14.2786 32.765 14.2606 32.6561 14.2649C32.5625 14.2676 32.4717 14.2868 32.3851 14.3228C32.297 14.3572 32.2187 14.4065 32.1486 14.4683C32.0785 14.5301 32.0221 14.6028 31.9767 14.6853C31.9328 14.7679 31.9023 14.8543 31.8885 14.9478C31.8733 15.0397 31.876 15.1332 31.894 15.2239C31.912 15.3158 31.9449 15.4026 31.9931 15.4836C32.0413 15.5634 32.1004 15.6334 32.1733 15.6936C32.2461 15.7527 32.326 15.798 32.4153 15.8297L35.2037 16.856L22.1992 21.642L9.1947 16.856L11.9831 15.8297C12.074 15.798 12.155 15.7527 12.2279 15.6924C12.3023 15.6318 12.3626 15.5606 12.4108 15.4781C12.4589 15.3956 12.4918 15.3092 12.5099 15.2157C12.5263 15.1222 12.5279 15.0276 12.5114 14.9341C12.495 14.8406 12.4633 14.7526 12.4167 14.6705C12.37 14.588 12.3093 14.5152 12.2377 14.4534C12.1648 14.3928 12.0838 14.3451 11.9941 14.3134C11.9048 14.2805 11.8124 14.2641 11.7176 14.2641C11.6158 14.2641 11.5194 14.2821 11.4258 14.3189L6.58096 16.1008C6.32366 16.1833 6.15173 16.3522 6.06361 16.6076L2.13908 22.8802C2.10736 22.9311 2.08268 22.9847 2.06193 23.041C2.04274 23.0973 2.02903 23.1552 2.02198 23.2154C2.01493 23.2745 2.01493 23.3335 2.02198 23.3926C2.02903 23.4532 2.04117 23.5107 2.06036 23.567C2.07955 23.6233 2.10579 23.6781 2.13594 23.7289C2.16767 23.7798 2.20487 23.8263 2.24599 23.869C2.28868 23.9116 2.33411 23.9499 2.38502 23.9816C2.43437 24.0144 2.48802 24.0422 2.54442 24.0625L6.05226 25.354V34.5935C6.05226 34.7625 6.1016 34.9162 6.19794 35.0539C6.29428 35.1927 6.42195 35.2917 6.58017 35.3492L21.9188 40.9925C22.1044 41.0613 22.2916 41.0613 22.4773 40.9925L37.8159 35.3492C37.9741 35.2913 38.1022 35.1927 38.1981 35.0539C38.2945 34.9166 38.3438 34.7625 38.3438 34.5935V25.354L41.8516 24.0625C41.908 24.0418 41.9617 24.0144 42.011 23.9816C42.0619 23.9499 42.1074 23.9116 42.1501 23.869C42.1912 23.8263 42.2284 23.7798 42.2585 23.7289C42.2903 23.6781 42.3165 23.6233 42.3357 23.567C42.3549 23.5107 42.3674 23.4528 42.3741 23.3926C42.3811 23.3335 42.3811 23.2745 42.3741 23.2154L42.376 23.2146ZM4.03379 22.8931L7.19738 17.8392L20.9902 22.9123V22.9139L17.8266 27.9666L4.03379 22.8935V22.8931ZM21.3921 39.0795L7.66812 34.0311V25.9469L17.8842 29.7055C17.9708 29.7371 18.0604 29.7536 18.1537 29.7547C18.2457 29.7563 18.3365 29.741 18.4231 29.7109C18.5112 29.682 18.5907 29.6382 18.6639 29.5803C18.7368 29.5224 18.7975 29.454 18.8468 29.3758L21.3917 25.3094V39.0795H21.3921ZM36.7307 34.0311L23.0067 39.0795V25.3094L25.5516 29.3758C25.6009 29.454 25.6616 29.5228 25.7345 29.5803C25.8073 29.6382 25.8872 29.682 25.9753 29.7109C26.0619 29.741 26.1527 29.7563 26.2448 29.7547C26.3384 29.7532 26.4276 29.7367 26.5142 29.7055L36.7303 25.9469V34.0311H36.7307ZM26.5722 27.9662L23.4097 22.9135L37.201 17.8388L40.3646 22.8927L26.5718 27.9658L26.5722 27.9662Z" fill="black"/>
<path d="M15.7232 14.469C15.7232 14.469 18.1697 18.0399 22.2466 18.0399C26.3235 18.0399 28.77 14.469 28.77 14.469C28.8436 14.3693 28.8867 14.2575 28.8981 14.1339C28.9082 14.0107 28.8867 13.8941 28.8303 13.783C28.7747 13.672 28.6932 13.5836 28.5871 13.5187C28.4817 13.4526 28.3654 13.4201 28.2409 13.4189C28.1265 13.4177 28.0204 13.4447 27.9205 13.4983C27.8199 13.5523 27.7396 13.6262 27.6773 13.7201C27.6773 13.7201 25.5253 16.725 22.247 16.725C18.9686 16.725 16.8166 13.7201 16.8166 13.7201C16.7532 13.627 16.6717 13.5554 16.5711 13.5026C16.4704 13.451 16.3639 13.4264 16.2507 13.4287C16.1274 13.4322 16.0142 13.4659 15.91 13.5308C15.8058 13.5957 15.7267 13.6833 15.6711 13.7916C15.6155 13.9004 15.5932 14.0158 15.6022 14.1366C15.6124 14.2586 15.6519 14.3685 15.7232 14.4683V14.469Z" fill="black"/>
<path d="M7.19777 17.8392L4.03378 22.8931L17.8266 27.9662L20.9902 22.9139L7.19777 17.8392Z" fill="#FF0000"/>
<path d="M23.4097 22.9139L26.5721 27.9662L40.365 22.8931L37.2014 17.8392L23.4097 22.9139Z" fill="#FF0000"/>
<path d="M17.5814 9.92602C18.5907 8.9181 18.5907 7.28395 17.5814 6.27604C16.5721 5.26813 14.9358 5.26813 13.9265 6.27604C12.9173 7.28395 12.9173 8.9181 13.9265 9.92602C14.9358 10.9339 16.5721 10.9339 17.5814 9.92602Z" fill="#1E1F1D"/>
<path d="M17.3406 9.98716C17.7497 9.42587 17.6257 8.63965 17.0636 8.2311C16.5016 7.82255 15.7143 7.94637 15.3052 8.50766C14.8961 9.06896 15.0201 9.85517 15.5822 10.2637C16.1442 10.6723 16.9315 10.5484 17.3406 9.98716Z" fill="white"/>
<path d="M28.4602 11.2757C27.1177 11.2757 25.9209 10.4238 25.4819 9.15625C25.2065 8.36152 25.2574 7.50773 25.6256 6.75133C25.9937 5.99492 26.6344 5.42703 27.4298 5.15209C27.7639 5.03671 28.1105 4.97804 28.4606 4.97804C29.8031 4.97804 30.9999 5.82988 31.4393 7.09746C31.7147 7.89219 31.6637 8.74598 31.2956 9.50238C30.9279 10.2588 30.2868 10.8267 29.4914 11.1016C29.1573 11.217 28.8107 11.2757 28.4606 11.2757H28.4602Z" fill="white"/>
<path d="M28.4602 11.3895C27.0695 11.3895 25.8292 10.5071 25.3742 9.1934C25.089 8.37012 25.1419 7.48504 25.523 6.70165C25.9044 5.91826 26.5682 5.32964 27.3926 5.04492C27.7388 4.92524 28.0979 4.86501 28.4606 4.86501C29.8513 4.86501 31.0916 5.74735 31.5466 7.06069C31.8318 7.88397 31.7789 8.76905 31.3978 9.55244C31.0168 10.3358 30.3526 10.9244 29.5282 11.2092C29.1824 11.3289 28.8229 11.3895 28.4602 11.3895ZM28.4606 5.09224C28.1234 5.09224 27.789 5.14856 27.467 5.26003C26.7002 5.5252 26.0826 6.07236 25.7278 6.80138C25.373 7.53041 25.324 8.35369 25.5892 9.11948C26.0125 10.3413 27.1663 11.1622 28.4602 11.1622C28.7978 11.1622 29.1319 11.1059 29.4538 10.9945C30.2206 10.7297 30.8382 10.1821 31.193 9.4531C31.5478 8.72407 31.5968 7.90118 31.3316 7.135C30.9083 5.91318 29.7545 5.09224 28.4606 5.09224Z" fill="black"/>
<path d="M30.3117 9.92948C31.321 8.92157 31.321 7.28742 30.3117 6.2795C29.3025 5.27159 27.6661 5.27159 26.6569 6.2795C25.6476 7.28742 25.6476 8.92157 26.6569 9.92948C27.6661 10.9374 29.3025 10.9374 30.3117 9.92948Z" fill="#1E1F1D"/>
<path d="M30.0706 9.99062C30.4797 9.42933 30.3557 8.64312 29.7937 8.23457C29.2316 7.82602 28.4444 7.94984 28.0353 8.51113C27.6262 9.07242 27.7502 9.85863 28.3122 10.2672C28.8742 10.6757 29.6615 10.5519 30.0706 9.99062Z" fill="white"/>
<path d="M34.1436 8.39397C34.1436 4.84388 31.5658 1.95555 28.3968 1.95555C27.0781 1.95555 25.7901 2.46868 24.7699 3.4003C23.9502 4.14888 23.3298 5.14073 22.9793 6.24757C22.3895 6.19751 21.8044 6.19751 21.2146 6.24757C20.8641 5.14073 20.2438 4.14888 19.4241 3.4003C18.4039 2.46868 17.1154 1.95515 15.7972 1.95515C12.6285 1.95515 10.0504 4.84349 10.0504 8.39358C10.0504 10.066 10.6226 11.648 11.6408 12.8401C10.7503 14.4968 10.278 16.2521 10.2662 17.9605C10.7922 17.9957 11.3177 18.0258 11.8429 18.0504C11.8429 18.0496 11.8429 18.0489 11.8429 18.0485C11.8429 18.041 11.8429 18.0258 11.8429 18.0258C11.8429 18.0258 12.3509 14.7628 13.3119 13.1968L13.7231 12.5264L13.1611 12.0117C12.1868 11.1196 11.6283 9.80079 11.6283 8.39358C11.6283 5.81813 13.4987 3.72257 15.7972 3.72257C17.742 3.72257 19.4547 5.26549 19.869 7.39156L20.0241 8.18668L20.7443 8.07874C21.6439 7.9438 22.5505 7.9438 23.4501 8.07874L24.1703 8.18668L24.3254 7.39156C24.7401 5.26549 26.4523 3.72257 28.3972 3.72257C30.696 3.72257 32.5661 5.81813 32.5661 8.39358C32.5661 9.80079 32.0072 11.1196 31.0332 12.0117L30.4712 12.5264L30.8824 13.1968C31.8435 14.7628 32.3515 16.4328 32.3515 18.0258C32.3515 18.0274 32.3515 18.0289 32.3515 18.0305C32.8766 18.043 33.4022 18.059 33.9282 18.0802C33.9282 18.0622 33.9293 18.0442 33.9293 18.0258C33.9293 16.2967 33.4555 14.5176 32.5535 12.8401C33.5718 11.648 34.1439 10.0663 34.1439 8.39358L34.1436 8.39397Z" fill="black"/>
</g>
<defs>
<clipPath id="clip0_97_358">
<rect width="44.2798" height="43" fill="white" transform="translate(0.0595093)"/>
</clipPath>
</defs>
</svg>
