<svg width="136" height="32" viewBox="0 0 136 32" fill="none" xmlns="http://www.w3.org/2000/svg">
<path fill-rule="evenodd" clip-rule="evenodd" d="M19.9039 8.26735C19.9039 8.88421 20.4039 9.38448 21.0211 9.38448C21.6379 9.38448 22.1382 8.88421 22.1382 8.26735C22.1382 7.65048 21.6379 7.1505 21.0211 7.1505C20.4039 7.1505 19.9039 7.65048 19.9039 8.26735ZM3.24797 5.68896H23.0642C23.2866 5.68896 23.4672 5.86928 23.4672 6.09196V25.9082C23.4672 26.1309 23.2866 26.3112 23.0642 26.3112H3.24797C3.02528 26.3112 2.84497 26.1309 2.84497 25.9082V6.09196C2.84497 5.86928 3.02528 5.68896 3.24797 5.68896ZM37.5191 25.6237C36.9145 25.6237 36.3093 25.5639 35.7043 25.4448C35.0994 25.3259 34.5266 25.1658 33.986 24.9639C33.4453 24.7622 32.9502 24.5284 32.5009 24.2628C32.0515 23.9969 31.6624 23.7264 31.3325 23.4514C31.1855 23.3234 31.1764 23.1949 31.3049 23.0666L31.965 22.2416C32.093 22.0951 32.2213 22.0863 32.3498 22.2143C32.973 22.6909 33.7474 23.1309 34.6734 23.5339C35.5988 23.9375 36.6119 24.1388 37.7119 24.1388C39.2144 24.1388 40.397 23.791 41.2584 23.0939C42.1202 22.3974 42.551 21.4714 42.551 20.317C42.551 19.8589 42.4779 19.4325 42.3309 19.0384C42.1841 18.6445 41.9415 18.2915 41.6023 17.9798C41.263 17.6681 40.8051 17.4025 40.2275 17.1824C39.6501 16.9622 38.9306 16.7973 38.0691 16.6872L37.2168 16.5774C35.3835 16.3394 34.0272 15.7985 33.1473 14.9549C32.2674 14.112 31.8274 13.0031 31.8274 11.628C31.8274 9.99668 32.3635 8.71346 33.436 7.77863C34.5082 6.8438 35.9424 6.37625 37.7392 6.37625C38.7841 6.37625 39.7738 6.51845 40.7087 6.80228C41.6435 7.08697 42.4313 7.46721 43.0735 7.9433C43.2381 8.03545 43.2566 8.16343 43.1284 8.32838L42.5783 9.18101C42.4685 9.30928 42.3403 9.32777 42.1935 9.2359C41.4419 8.77802 40.6993 8.43418 39.9664 8.20466C39.2329 7.97572 38.463 7.86111 37.6565 7.86111C36.3184 7.86111 35.2783 8.19585 34.536 8.86476C33.7935 9.53396 33.4223 10.4182 33.4223 11.5179C33.4223 12.4713 33.7568 13.2502 34.426 13.8554C35.0949 14.4604 36.2268 14.8636 37.8214 15.0653L38.6743 15.1751C40.5804 15.4322 41.9688 15.9862 42.8397 16.8385C43.7102 17.6909 44.1459 18.8143 44.1459 20.207C44.1459 20.9956 44.0012 21.7191 43.7119 22.3792C43.4227 23.039 43.0012 23.6121 42.4469 24.0976C41.8929 24.5836 41.2038 24.9596 40.379 25.2252C39.554 25.4906 38.6007 25.6237 37.5191 25.6237ZM57.192 15.7524C58.5622 15.7524 59.6091 15.4225 60.3309 14.7627C61.0527 14.1026 61.4136 13.1678 61.4136 11.9579C61.4136 10.7481 61.0527 9.809 60.3309 9.13952C59.6091 8.47061 58.5622 8.13587 57.192 8.13587H52.4772C52.3671 8.13587 52.3125 8.19104 52.3125 8.3011V15.5875C52.3125 15.6975 52.3671 15.7524 52.4772 15.7524H57.192ZM50.9971 25.3487C50.8109 25.3487 50.7173 25.2574 50.7173 25.0737V6.92631C50.7173 6.74316 50.8089 6.65129 50.9926 6.65129H57.2486C59.0485 6.65129 60.4589 7.1234 61.4788 8.06733C62.498 9.01154 63.0083 10.3081 63.0083 11.9579C63.0083 13.6077 62.4995 14.9001 61.4822 15.8349C60.4649 16.77 59.0579 17.2376 57.2617 17.2376H52.4772C52.3671 17.2376 52.3125 17.2925 52.3125 17.4025V25.0737C52.3125 25.2574 52.2192 25.3487 52.0326 25.3487H50.9971ZM73.0027 9.1809L76.5088 18.9697H69.3871L72.9205 9.1809H73.0027ZM72.4814 6.65144C72.3161 6.65144 72.2066 6.7433 72.1517 6.92617L65.6199 25.0738C65.5653 25.2573 65.6276 25.3488 65.809 25.3488H66.8633C67.0251 25.3488 67.1426 25.2573 67.2145 25.0738L68.8683 20.4819H77.0269L78.6807 25.0738C78.7171 25.2573 78.8337 25.3488 79.0322 25.3488H80.0865C80.2674 25.3488 80.3305 25.2573 80.2757 25.0738L73.7984 6.92617C73.7435 6.7433 73.634 6.65144 73.4691 6.65144H72.4814ZM85.6371 21.4443C85.5634 21.2063 85.4949 20.9449 85.4309 20.6605C85.3663 20.3767 85.316 20.024 85.2796 19.6017C85.2423 19.1805 85.2108 18.6808 85.1832 18.1035C85.1562 17.5261 85.1419 16.8248 85.1419 16C85.1419 15.175 85.1562 14.4739 85.1832 13.8963C85.2108 13.319 85.2423 12.8198 85.2796 12.3981C85.316 11.9763 85.3663 11.6239 85.4309 11.3393C85.4949 11.0554 85.5634 10.7941 85.6371 10.5557C86.1134 9.14424 86.8469 8.0948 87.8366 7.4074C88.8266 6.72 90.0638 6.37645 91.5486 6.37645C92.8316 6.37645 93.9589 6.66483 94.9307 7.24245C95.9022 7.81978 96.6536 8.68607 97.1852 9.84074C97.2583 10.0057 97.2312 10.1251 97.103 10.1982L96.1957 10.6382C96.0484 10.7301 95.9295 10.6931 95.838 10.5281C95.4162 9.72186 94.8622 9.0757 94.1748 8.58966C93.4871 8.10419 92.6114 7.86102 91.5486 7.86102C90.394 7.86102 89.4631 8.12239 88.7581 8.64483C88.0519 9.16728 87.5155 9.9417 87.1492 10.9681C87.0943 11.1515 87.0395 11.3717 86.9843 11.6279C86.9294 11.885 86.8836 12.2055 86.8469 12.5903C86.8099 12.9754 86.7824 13.4427 86.7644 13.9927C86.7459 14.5427 86.7368 15.2119 86.7368 16C86.7368 16.7884 86.7459 17.457 86.7644 18.007C86.7824 18.5574 86.8099 19.0246 86.8469 19.4097C86.8836 19.7945 86.9294 20.1153 86.9843 20.3718C87.0395 20.6289 87.0943 20.8488 87.1492 21.0319C87.5155 22.0586 88.0519 22.833 88.7581 23.3555C89.4631 23.8779 90.394 24.139 91.5486 24.139C92.6114 24.139 93.4871 23.8961 94.1748 23.4101C94.8622 22.9246 95.4162 22.2787 95.838 21.4716C95.9295 21.3069 96.0484 21.2705 96.1957 21.3618L97.103 21.8018C97.2312 21.8752 97.2583 21.9943 97.1852 22.1593C96.6536 23.314 95.9022 24.1803 94.9307 24.7573C93.9589 25.3352 92.8316 25.6236 91.5486 25.6236C90.0638 25.6236 88.8266 25.2797 87.8366 24.5926C86.8469 23.9052 86.1134 22.8561 85.6371 21.4443ZM103.707 6.65124C103.52 6.65124 103.427 6.7431 103.427 6.92625V25.0739C103.427 25.2573 103.52 25.3486 103.707 25.3486H114.426C114.609 25.3486 114.701 25.2573 114.701 25.0739V24.1388C114.701 23.9559 114.609 23.8641 114.426 23.8641H105.187C105.077 23.8641 105.022 23.8089 105.022 23.6991V16.7699C105.022 16.6599 105.077 16.6047 105.187 16.6047H113.133C113.316 16.6047 113.409 16.5134 113.409 16.3297V15.3952C113.409 15.212 113.316 15.1201 113.133 15.1201H105.187C105.077 15.1201 105.022 15.0652 105.022 14.9549V8.30105C105.022 8.19098 105.077 8.13581 105.187 8.13581H114.426C114.609 8.13581 114.701 8.04452 114.701 7.86108V6.92625C114.701 6.7431 114.609 6.65124 114.426 6.65124H103.707ZM120.915 6.92625C120.915 6.7431 121.008 6.65124 121.195 6.65124H131.913C132.096 6.65124 132.188 6.7431 132.188 6.92625V7.86108C132.188 8.04452 132.096 8.13581 131.913 8.13581H122.675C122.565 8.13581 122.51 8.19098 122.51 8.30105V14.9549C122.51 15.0652 122.565 15.1201 122.675 15.1201H130.621C130.804 15.1201 130.896 15.212 130.896 15.3952V16.3297C130.896 16.5134 130.804 16.6047 130.621 16.6047H122.675C122.565 16.6047 122.51 16.6599 122.51 16.7699V23.6991C122.51 23.8089 122.565 23.8641 122.675 23.8641H131.913C132.096 23.8641 132.188 23.9559 132.188 24.1388V25.0739C132.188 25.2573 132.096 25.3486 131.913 25.3486H121.195C121.008 25.3486 120.915 25.2573 120.915 25.0739V6.92625Z" fill="black"/>
</svg>
